<?xml version="1.0" encoding="UTF-8" standalone="no"?>
<svg width="40px" height="36px" viewBox="0 0 40 36" version="1.1" xmlns="http://www.w3.org/2000/svg" xmlns:xlink="http://www.w3.org/1999/xlink">
    <!-- Generator: sketchtool 41.2 (35397) - http://www.bohemiancoding.com/sketch -->
    <title>FA826F19-0ECF-41A0-B53E-AF4760CF6BD7</title>
    <desc>Created with sketchtool.</desc>
    <defs>
        <polygon id="path-1" points="33.28 25.037504 33.28 0.077504 6.4e-05 0.077504 6.4e-05 25.037504 33.28 25.037504"></polygon>
    </defs>
    <g id="website" stroke="none" stroke-width="1" fill="none" fill-rule="evenodd">
        <g id="Issue" transform="translate(-532.000000, -54.000000)">
            <g id="Group-5" transform="translate(494.000000, 47.000000)">
                <g id="Page-1" transform="translate(38.000000, 7.000000)">
                    <g id="Group-3" transform="translate(6.720000, 0.242560)">
                        <mask id="mask-2" fill="white">
                            <use xlink:href="#path-1"></use>
                        </mask>
                        <g id="Clip-2"></g>
                        <path d="M21.120064,25.037504 L4.000064,25.037504 C1.794304,25.037504 6.4e-05,23.243264 6.4e-05,21.037504 L6.4e-05,4.077504 C6.4e-05,1.871744 1.794304,0.077504 4.000064,0.077504 L29.280064,0.077504 C31.485824,0.077504 33.280064,1.871744 33.280064,4.077504 L33.280064,21.037504 C33.280064,22.802304 32.098304,24.380864 30.406464,24.876544 C29.982464,25.001024 29.537984,24.757824 29.413504,24.333824 C29.289344,23.909824 29.532224,23.465344 29.956224,23.341184 C30.971264,23.043904 31.680064,22.096704 31.680064,21.037504 L31.680064,4.077504 C31.680064,2.753984 30.603584,1.677504 29.280064,1.677504 L4.000064,1.677504 C2.676544,1.677504 1.600064,2.753984 1.600064,4.077504 L1.600064,21.037504 C1.600064,22.361024 2.676544,23.437504 4.000064,23.437504 L21.120064,23.437504 C21.561984,23.437504 21.920064,23.795584 21.920064,24.237504 C21.920064,24.679424 21.561984,25.037504 21.120064,25.037504" id="Fill-1" fill="#A5A5A5" mask="url(#mask-2)"></path>
                    </g>
                    <path d="M33.760384,32.37008 C33.525824,32.37008 33.297664,32.26672 33.142464,32.07856 L27.286784,24.96752 C27.005824,24.6264 27.054464,24.12208 27.395584,23.84144 C27.736384,23.56112 28.241024,23.60944 28.521664,23.95024 L32.960064,29.34 L32.960064,24.32016 C32.960064,23.87824 33.318144,23.52016 33.760064,23.52016 C34.201984,23.52016 34.560064,23.87824 34.560064,24.32016 L34.560064,31.57008 C34.560064,31.90768 34.348224,32.20912 34.030144,32.32304 C33.941824,32.35472 33.850624,32.37008 33.760384,32.37008" id="Fill-4" fill="#A5A5A5"></path>
                    <path d="M1.023168,11.30304 C0.924928,11.30304 0.825728,11.2848 0.728768,11.24672 C0.318208,11.08384 0.116928,10.6192 0.279808,10.20832 C0.887808,8.67232 2.348288,7.68 4.000128,7.68 L4.800128,7.68 C5.242048,7.68 5.600128,8.03808 5.600128,8.48 C5.600128,8.92192 5.242048,9.28 4.800128,9.28 L4.000128,9.28 C3.008768,9.28 2.132288,9.87584 1.767168,10.79744 C1.643008,11.11136 1.341888,11.30304 1.023168,11.30304" id="Fill-6" fill="#A5A5A5"></path>
                    <path d="M0.800064,16.479744 C0.358144,16.479744 6.4e-05,16.121664 6.4e-05,15.679744 L6.4e-05,12.479104 C6.4e-05,12.037184 0.358144,11.679104 0.800064,11.679104 C1.241984,11.679104 1.600064,12.037184 1.600064,12.479104 L1.600064,15.679744 C1.600064,16.121664 1.241984,16.479744 0.800064,16.479744" id="Fill-8" fill="#A5A5A5"></path>
                    <path d="M0.800064,22.773504 C0.358144,22.773504 6.4e-05,22.415424 6.4e-05,21.973504 L6.4e-05,18.240064 C6.4e-05,17.798144 0.358144,17.440064 0.800064,17.440064 C1.241984,17.440064 1.600064,17.798144 1.600064,18.240064 L1.600064,21.973504 C1.600064,22.415424 1.241984,22.773504 0.800064,22.773504" id="Fill-10" fill="#A5A5A5"></path>
                    <path d="M5.440064,30.400064 L4.000064,30.400064 C1.794304,30.400064 6.4e-05,28.605824 6.4e-05,26.400064 L6.4e-05,25.280064 C6.4e-05,24.838144 0.358144,24.480064 0.800064,24.480064 C1.241984,24.480064 1.600064,24.838144 1.600064,25.280064 L1.600064,26.400064 C1.600064,27.723584 2.676544,28.800064 4.000064,28.800064 L5.440064,28.800064 C5.881984,28.800064 6.240064,29.158144 6.240064,29.600064 C6.240064,30.041984 5.881984,30.400064 5.440064,30.400064" id="Fill-12" fill="#A5A5A5"></path>
                    <path d="M13.332864,30.400064 L10.560064,30.400064 C10.118144,30.400064 9.760064,30.041984 9.760064,29.600064 C9.760064,29.158144 10.118144,28.800064 10.560064,28.800064 L13.332864,28.800064 C13.774784,28.800064 14.132864,29.158144 14.132864,29.600064 C14.132864,30.041984 13.774784,30.400064 13.332864,30.400064" id="Fill-14" fill="#A5A5A5"></path>
                    <path d="M18.453184,30.400064 L16.000064,30.400064 C15.558144,30.400064 15.200064,30.041984 15.200064,29.600064 C15.200064,29.158144 15.558144,28.800064 16.000064,28.800064 L18.453184,28.800064 C18.895104,28.800064 19.253184,29.158144 19.253184,29.600064 C19.253184,30.041984 18.895104,30.400064 18.453184,30.400064" id="Fill-16" fill="#A5A5A5"></path>
                    <path d="M24.000672,30.400064 L21.653472,30.400064 C21.211552,30.400064 20.853472,30.041984 20.853472,29.600064 C20.853472,29.158144 21.211552,28.800064 21.653472,28.800064 L24.000672,28.800064 C24.442592,28.800064 24.800672,29.158144 24.800672,29.600064 C24.800672,30.041984 24.442592,30.400064 24.000672,30.400064" id="Fill-18" fill="#A5A5A5"></path>
                    <path d="M28.320064,30.400064 L26.454144,30.400064 C26.012224,30.400064 25.654144,30.041984 25.654144,29.600064 C25.654144,29.158144 26.012224,28.800064 26.454144,28.800064 L28.228864,28.800064 C28.302464,28.775104 28.396864,28.747904 28.510464,28.738624 C28.949184,28.702144 29.337664,29.028544 29.374464,29.468864 C29.409024,29.882304 29.122944,30.248384 28.723584,30.322304 C28.629184,30.356224 28.493824,30.400064 28.320064,30.400064" id="Fill-20" fill="#A5A5A5"></path>
                    <path d="M5.843168,35.76256 C5.750048,35.76256 5.656608,35.74656 5.566368,35.71296 C5.260768,35.60032 5.053728,35.31328 5.043488,34.98752 L4.881248,29.78752 C4.867168,29.34592 5.214048,28.97664 5.655648,28.96288 C6.095008,28.95936 6.466528,29.296 6.480288,29.7376 L6.581408,32.9632 L9.984608,29.224 C10.282208,28.89728 10.788128,28.87328 11.114848,29.17088 C11.441568,29.46848 11.465248,29.9744 11.167968,30.30112 L6.434848,35.50112 C6.280288,35.67072 6.063968,35.76256 5.843168,35.76256" id="Fill-22" fill="#A5A5A5"></path>
                    <path d="M15.010368,10.69664 C14.232448,10.69664 13.600128,11.32928 13.600128,12.10688 C13.600128,12.88416 14.232448,13.5168 15.010368,13.5168 C15.787968,13.5168 16.420288,12.88416 16.420288,12.10688 C16.420288,11.32928 15.787968,10.69664 15.010368,10.69664 M15.010368,15.1168 C13.350528,15.1168 12.000128,13.7664 12.000128,12.10688 C12.000128,10.44704 13.350528,9.09664 15.010368,9.09664 C16.670208,9.09664 18.020288,10.44704 18.020288,12.10688 C18.020288,13.7664 16.670208,15.1168 15.010368,15.1168" id="Fill-24" fill="#A5A5A5"></path>
                    <path d="M23.010368,10.69664 C22.232448,10.69664 21.600128,11.32928 21.600128,12.10688 C21.600128,12.88416 22.232448,13.5168 23.010368,13.5168 C23.787968,13.5168 24.420288,12.88416 24.420288,12.10688 C24.420288,11.32928 23.787968,10.69664 23.010368,10.69664 M23.010368,15.1168 C21.350528,15.1168 20.000128,13.7664 20.000128,12.10688 C20.000128,10.44704 21.350528,9.09664 23.010368,9.09664 C24.670208,9.09664 26.020288,10.44704 26.020288,12.10688 C26.020288,13.7664 24.670208,15.1168 23.010368,15.1168" id="Fill-26" fill="#A5A5A5"></path>
                    <path d="M30.690368,10.69664 C29.912768,10.69664 29.280128,11.32928 29.280128,12.10688 C29.280128,12.88416 29.912768,13.5168 30.690368,13.5168 C31.467968,13.5168 32.100288,12.88416 32.100288,12.10688 C32.100288,11.32928 31.467968,10.69664 30.690368,10.69664 M30.690368,15.1168 C29.030528,15.1168 27.680128,13.7664 27.680128,12.10688 C27.680128,10.44704 29.030528,9.09664 30.690368,9.09664 C32.350208,9.09664 33.700288,10.44704 33.700288,12.10688 C33.700288,13.7664 32.350208,15.1168 30.690368,15.1168" id="Fill-28" fill="#A5A5A5"></path>
                </g>
            </g>
        </g>
    </g>
</svg>