<?xml version="1.0" encoding="UTF-8" standalone="no"?>
<svg width="42px" height="40px" viewBox="0 0 42 40" version="1.1" xmlns="http://www.w3.org/2000/svg" xmlns:xlink="http://www.w3.org/1999/xlink">
    <!-- Generator: sketchtool 41.2 (35397) - http://www.bohemiancoding.com/sketch -->
    <title>C5C76CF9-7C2C-40AB-A4F8-E3C5D4671993</title>
    <desc>Created with sketchtool.</desc>
    <defs>
        <polygon id="path-1" points="10.3335224 0.277764482 0.159564409 0.277764482 0.159564409 28.7009691 10.3335224 28.7009691"></polygon>
    </defs>
    <g id="website" stroke="none" stroke-width="1" fill="none" fill-rule="evenodd">
        <g id="Event" transform="translate(-1086.000000, -52.000000)">
            <g id="Group-5" transform="translate(1050.000000, 47.000000)">
                <g id="Page-1" transform="translate(36.000000, 5.000000)">
                    <g id="Group-3" transform="translate(23.664706, 0.018044)">
                        <mask id="mask-2" fill="white">
                            <use xlink:href="#path-1"></use>
                        </mask>
                        <g id="Clip-2"></g>
                        <path d="M1.69714394,2.16484727 L7.30508756,27.0710625 L8.81430416,26.5244078 L3.25043606,1.81520124 L1.69714394,2.16484727 Z M6.79629639,28.7009691 C6.68033933,28.7009691 6.56438227,28.671684 6.46025757,28.6151845 C6.2836597,28.5184551 6.15734933,28.3507315 6.11327382,28.1543144 L0.176686608,1.78917007 C0.135864991,1.60813507 0.16869977,1.41822581 0.268091534,1.26085552 C0.367483297,1.10407684 0.52485359,0.992852724 0.706184396,0.952031107 L3.62611326,0.295039717 C4.0029737,0.209846777 4.37805928,0.446789642 4.46295641,0.824241697 L10.3164213,26.8187376 C10.3936274,27.1627632 10.2031266,27.5106344 9.87182069,27.6310286 L7.0350141,28.6589642 C6.95751219,28.6867703 6.87705219,28.7009691 6.79629639,28.7009691 L6.79629639,28.7009691 Z" id="Fill-1" fill="#000000" mask="url(#mask-2)"></path>
                    </g>
                    <path d="M15.5308209,13.7890394 C15.2628181,13.7890394 15.0069435,13.6343314 14.8906906,13.373428 C14.7333203,13.0199365 14.8921697,12.6058041 15.2453654,12.4487296 C17.9245059,11.2548452 21.9853694,7.69981485 24.1441821,3.81761989 C24.3323165,3.4792146 24.758577,3.35793298 25.0966865,3.54577158 C25.434796,3.73361019 25.5566692,4.1601665 25.3685348,4.49798018 C22.980766,8.79194101 18.6646195,12.4581955 15.8156848,13.727807 C15.7228008,13.7692202 15.6260713,13.7890394 15.5308209,13.7890394" id="Fill-4" fill="#000000"></path>
                    <path d="M29.8983736,26.8982214 C29.7359746,26.8982214 29.5723923,26.8420177 29.4401658,26.7269481 C28.0815158,25.549629 23.9827888,24.2616774 18.1946977,23.1929201 C17.8139917,23.1228134 17.56285,22.7577854 17.6329567,22.3770794 C17.7030634,21.9969651 18.0701621,21.7461192 18.4487974,21.8156343 C22.7747056,22.6143181 28.3524767,23.9309631 30.3574689,25.66884 C30.649728,25.9220523 30.6810838,26.3642865 30.4278714,26.6568414 C30.2894329,26.8165782 30.0944949,26.8982214 29.8983736,26.8982214" id="Fill-6" fill="#000000"></path>
                    <path d="M4.22278923,15.8516256 L6.18222686,24.5549127 L15.3014212,22.4596988 L13.2559032,13.8173483 L4.22278923,15.8516256 Z M5.65361649,26.095485 C5.52257319,26.095485 5.39300892,26.0588047 5.28030576,25.9878106 C5.12263966,25.8887146 5.01111974,25.7304569 4.97000231,25.5485345 L2.70203609,15.4759484 C2.61713896,15.0987921 2.85437763,14.7237065 3.23153387,14.6391052 L13.3990746,12.3492491 C13.4916628,12.3282467 13.5839552,12.3270635 13.6715146,12.3418539 C14.0350636,12.2823963 14.3855971,12.5092817 14.4713816,12.8710559 L16.8269072,22.822952 C16.8700953,23.0048745 16.8387396,23.195967 16.7402353,23.3542247 C16.6417309,23.5124824 16.4840648,23.6251856 16.3024382,23.6671904 L5.81009936,26.0774407 C5.75833282,26.0895688 5.70597466,26.095485 5.65361649,26.095485 L5.65361649,26.095485 Z" id="Fill-8" fill="#000000"></path>
                    <path d="M33.1802837,10.2482966 C33.0030943,10.2482966 32.8264964,10.1817396 32.6901285,10.048034 C32.4138431,9.77766474 32.409406,9.33424732 32.6797752,9.05796188 L36.7977298,4.85363112 C37.0686907,4.57734568 37.5118123,4.57261274 37.7880977,4.84327781 C38.0643832,5.11364707 38.0688203,5.5570645 37.798451,5.83334993 L33.6804965,10.0376807 C33.543537,10.1778941 33.3619104,10.2482966 33.1802837,10.2482966" id="Fill-10" fill="#000000"></path>
                    <path d="M30.3374427,7.84109314 C30.2661527,7.84109314 30.1936796,7.83014821 30.121798,7.80707512 C29.753516,7.68756836 29.5517744,7.29295939 29.6709854,6.92497322 L31.2103745,2.16836739 C31.3295854,1.80008541 31.7238986,1.59804799 32.0921806,1.71755475 C32.4601667,1.8364699 32.6619084,2.23167048 32.5426974,2.59936085 L31.0036041,7.35626248 C30.9077621,7.65236711 30.6329557,7.84109314 30.3374427,7.84109314" id="Fill-12" fill="#000000"></path>
                    <path d="M36.1513579,25.242964 C35.9212187,25.242964 35.6955166,25.1296692 35.561811,24.9214198 L32.8563435,20.7173849 C32.646615,20.3925868 32.7409781,19.958931 33.066072,19.7497942 C33.3911658,19.5403616 33.8248216,19.634133 34.0339584,19.9598185 L36.7394259,24.1638534 C36.9491543,24.4886515 36.8550871,24.9223072 36.5296974,25.1314441 C36.4125571,25.2071711 36.2809222,25.242964 36.1513579,25.242964" id="Fill-14" fill="#000000"></path>
                    <path d="M34.9184564,14.0406544 C34.6099278,14.0406544 34.3274303,13.8353631 34.242829,13.5235806 C34.1413666,13.1502698 34.3617442,12.7651268 34.7350549,12.6639601 L40.7370159,11.0340535 C41.1100308,10.9322953 41.4948781,11.1532645 41.5966363,11.5262794 C41.6978029,11.8995902 41.4777211,12.2844374 41.1041146,12.3858999 L35.1021536,14.0161023 C35.0409212,14.0326676 34.9790972,14.0406544 34.9184564,14.0406544" id="Fill-16" fill="#000000"></path>
                    <g id="Group-20" transform="translate(34.018014, 16.583338)" fill="#000000">
                        <path d="M7.13984875,3.79324524 C7.06323427,3.79324524 6.98573235,3.78082127 6.90970949,3.75419848 L0.600403162,1.55781799 C0.234783461,1.43091601 0.0419161098,1.0315741 0.169113902,0.666250206 C0.296015886,0.300926313 0.695357794,0.107467344 1.06068169,0.234960946 L7.36998801,2.43134144 C7.7353119,2.55853923 7.92817926,2.95758533 7.80098146,3.32290922 C7.70070227,3.61191444 7.42944558,3.79324524 7.13984875,3.79324524" id="Fill-18"></path>
                    </g>
                    <path d="M16.6736191,39.9522351 C16.6313185,39.9522351 16.5893136,39.9483895 16.5473088,39.9406985 L13.7959909,39.4366403 C13.6034194,39.4011432 13.4339209,39.2866652 13.3295004,39.1204207 L5.12731344,26.0767307 C4.9214305,25.7492704 5.01993484,25.3165021 5.3473952,25.1109149 C5.67485557,24.905032 6.10703225,25.0038321 6.313211,25.3309967 L14.3512241,38.1140791 L16.5257147,38.5125335 L20.8912613,35.6757269 L20.2520184,34.6927542 L18.2822275,34.609632 C18.0417349,34.5995745 17.823428,34.4667563 17.7036254,34.2576195 L14.6674437,28.9466679 C14.5550363,28.7505467 14.544683,28.5121247 14.6387502,28.3071292 L16.0018373,25.3360254 L15.4708605,23.4262837 C15.3673274,23.0532688 15.5850427,22.6672383 15.9580576,22.564001 C16.3298893,22.4601721 16.7168072,22.6781832 16.8203403,23.0509023 L17.419649,25.2070528 C17.4640203,25.3667896 17.4504131,25.5368796 17.3817854,25.6868547 L16.0621823,28.5638913 L18.7280114,33.2264299 L20.6717711,33.308369 C20.8980649,33.3178348 21.1054269,33.4364542 21.2290749,33.6260676 L22.4478073,35.4991291 C22.5489739,35.6550203 22.5838793,35.8449296 22.5460158,36.0265562 C22.5072649,36.2081828 22.3981114,36.3676238 22.2422202,36.4687904 L17.0552125,39.8392361 C16.9407345,39.9131883 16.8082121,39.9522351 16.6736191,39.9522351" id="Fill-21" fill="#000000"></path>
                    <g id="Group-25" transform="translate(0.000000, 15.695912)" fill="#000000">
                        <path d="M2.70475753,10.1427224 C2.49088775,10.1427224 2.28411739,10.0445139 2.14922856,9.86880344 C2.10426562,9.81023329 1.03462093,8.39153419 0.36993851,5.24383254 C-0.283798982,2.14848904 0.110218366,1.04660119 0.196002924,0.856987733 C0.277646159,0.676248544 0.431762554,0.538993251 0.62078439,0.478648252 L1.8117107,0.0973506827 C2.17969687,-0.0197896101 2.57460165,0.182839432 2.69203775,0.551121413 C2.80976966,0.919403394 2.60714062,1.31342074 2.23856283,1.43144846 L1.43070894,1.68998537 C1.37835078,2.12955728 1.35350284,3.12229168 1.74042077,4.95453151 C2.14390401,6.86516068 2.70150363,8.05490375 3.01772326,8.62226507 L3.70518296,8.42288993 C4.07790207,8.31373647 4.46541163,8.52878948 4.57308604,8.90002955 C4.68105626,9.27156543 4.46718648,9.65996241 4.09594641,9.76763682 L2.90028716,10.1149164 C2.83550503,10.1338481 2.77013128,10.1427224 2.70475753,10.1427224" id="Fill-23"></path>
                    </g>
                    <path d="M16.4704872,15.7723488 C16.3172582,15.4173782 16.4808405,15.0053165 16.8361069,14.8520876 C18.1879532,14.2690484 19.4457323,13.5301179 20.5745388,12.6565945 C20.8804051,12.4196516 21.3202728,12.4758553 21.5572157,12.7814258 C21.7938627,13.0872921 21.7379549,13.5274557 21.4320885,13.7638069 C20.2101023,14.7100993 18.850565,15.509079 17.3910443,16.1385601 C17.3005268,16.1773111 17.2061637,16.195947 17.1138714,16.195947 C16.8426147,16.195947 16.5846694,16.0373935 16.4704872,15.7723488 Z" id="Fill-26" fill="#000000"></path>
                    <path d="M22.7987845,11.6255824 C22.5088918,11.3697078 22.4813816,10.9271778 22.7378478,10.6372852 C23.0715202,10.2592415 23.37502,9.87705651 23.6388815,9.50108349 C23.8616255,9.18427225 24.2985352,9.10854519 24.6147548,9.33069761 C24.9312702,9.55285004 25.0072931,9.99005547 24.7848449,10.3062751 C24.4911067,10.7245488 24.1556595,11.148147 23.7870817,11.5646458 C23.648939,11.7214245 23.4557758,11.8012929 23.2623169,11.8012929 C23.0972556,11.8012929 22.9318984,11.7436102 22.7987845,11.6255824 Z" id="Fill-28" fill="#000000"></path>
                    <path d="M31.4039814,17.4543178 C31.2273835,17.4543178 31.0507856,17.3877608 30.9144178,17.2546468 C30.6378365,16.9839817 30.6331036,16.5408601 30.9037686,16.2642789 L31.6323458,15.5188406 L31.0002023,12.8006534 L30.1707544,12.5036613 C29.8066137,12.3732097 29.6170003,11.9726845 29.7471562,11.6079522 C29.8776078,11.2441074 30.2793162,11.0547897 30.6428653,11.1852414 L31.8314251,11.6103187 C32.0556482,11.6907787 32.2236676,11.8789131 32.2778006,12.111123 L33.0841755,15.5753401 C33.1380127,15.8084375 33.0696808,16.0527756 32.902253,16.2237531 L31.9047857,17.2437019 C31.7675304,17.3842111 31.5859038,17.4543178 31.4039814,17.4543178" id="Fill-30" fill="#000000"></path>
                </g>
            </g>
        </g>
    </g>
</svg>