<?xml version="1.0" encoding="UTF-8" standalone="no"?>
<svg width="41px" height="40px" viewBox="0 0 41 40" version="1.1" xmlns="http://www.w3.org/2000/svg" xmlns:xlink="http://www.w3.org/1999/xlink">
    <!-- Generator: sketchtool 41.2 (35397) - http://www.bohemiancoding.com/sketch -->
    <title>192E7E07-948D-47B4-A8F4-1F192A1E7880</title>
    <desc>Created with sketchtool.</desc>
    <defs>
        <polygon id="path-1" points="10.0863208 0.277764482 0.155747263 0.277764482 0.155747263 28.7009691 10.0863208 28.7009691"></polygon>
    </defs>
    <g id="website" stroke="none" stroke-width="1" fill="none" fill-rule="evenodd">
        <g id="HOME-page-blue" transform="translate(-934.000000, -799.000000)">
            <g id="Group-2" transform="translate(898.000000, 793.000000)">
                <g id="Group-4">
                    <g id="Page-1" transform="translate(36.000000, 6.000000)">
                        <g id="Group-3" transform="translate(23.098592, 0.018044)">
                            <mask id="mask-2" fill="white">
                                <use xlink:href="#path-1"></use>
                            </mask>
                            <g id="Clip-2"></g>
                            <path d="M1.65654437,2.16484727 L7.1303331,27.0710625 L8.60344577,26.5244078 L3.17267817,1.81520124 L1.65654437,2.16484727 Z M6.63371338,28.7009691 C6.52053028,28.7009691 6.40734718,28.671684 6.30571338,28.6151845 C6.13334014,28.5184551 6.01005141,28.3507315 5.96703028,28.1543144 L0.172459859,1.78917007 C0.132614789,1.60813507 0.164664085,1.41822581 0.261678169,1.26085552 C0.358692254,1.10407684 0.512297887,0.992852724 0.689290845,0.952031107 L3.53936831,0.295039717 C3.90721338,0.209846777 4.27332606,0.446789642 4.35619225,0.824241697 L10.0696289,26.8187376 C10.144988,27.1627632 9.95904437,27.5106344 9.63566408,27.6310286 L6.86672042,28.6589642 C6.79107254,28.6867703 6.71253732,28.7009691 6.63371338,28.7009691 L6.63371338,28.7009691 Z" id="Fill-1" fill="#FFFFFF" mask="url(#mask-2)"></path>
                        </g>
                        <path d="M15.159288,13.7890394 C14.8976965,13.7890394 14.647943,13.6343314 14.5344711,13.373428 C14.3808655,13.0199365 14.5359148,12.6058041 14.8806613,12.4487296 C17.4957106,11.2548452 21.4594289,7.69981485 23.5665979,3.81761989 C23.7502317,3.4792146 24.1662951,3.35793298 24.4963162,3.54577158 C24.8263373,3.73361019 24.9452951,4.1601665 24.7616613,4.49798018 C22.4310134,8.79194101 18.218119,12.4581955 15.4373373,13.727807 C15.3466754,13.7692202 15.2522599,13.7890394 15.159288,13.7890394" id="Fill-4" fill="#FFFFFF"></path>
                        <path d="M29.1831359,26.8982214 C29.0246218,26.8982214 28.8649528,26.8420177 28.7358894,26.7269481 C27.4097415,25.549629 23.4090655,24.2616774 17.7594387,23.1929201 C17.3878401,23.1228134 17.1427063,22.7577854 17.2111359,22.3770794 C17.2795655,21.9969651 17.6378824,21.7461192 18.0074599,21.8156343 C22.2298824,22.6143181 27.6742204,23.9309631 29.6312486,25.66884 C29.9165162,25.9220523 29.9471218,26.3642865 29.6999669,26.6568414 C29.5648401,26.8165782 29.3745655,26.8982214 29.1831359,26.8982214" id="Fill-6" fill="#FFFFFF"></path>
                        <path d="M4.12177042,15.8516256 L6.0343338,24.5549127 L14.9353761,22.4596988 L12.9387915,13.8173483 L4.12177042,15.8516256 Z M5.51836901,26.095485 C5.39046056,26.095485 5.26399577,26.0588047 5.15398873,25.9878106 C5.00009437,25.8887146 4.89124225,25.7304569 4.85110845,25.5485345 L2.63739718,15.4759484 C2.55453099,15.0987921 2.78609437,14.7237065 3.15422817,14.6391052 L13.078538,12.3492491 C13.1689113,12.3282467 13.2589958,12.3270635 13.3444606,12.3418539 C13.6993127,12.2823963 14.0414606,12.5092817 14.125193,12.8710559 L16.424369,22.822952 C16.4665239,23.0048745 16.4359183,23.195967 16.3397704,23.3542247 C16.2436225,23.5124824 16.0897282,23.6251856 15.9124465,23.6671904 L5.67110845,26.0774407 C5.62058028,26.0895688 5.56947465,26.095485 5.51836901,26.095485 L5.51836901,26.095485 Z" id="Fill-8" fill="#FFFFFF"></path>
                        <path d="M32.3865352,10.2482966 C32.2135845,10.2482966 32.0412113,10.1817396 31.9081056,10.048034 C31.6384296,9.77766474 31.6340986,9.33424732 31.898,9.05796188 L35.9174437,4.85363112 C36.1819225,4.57734568 36.6144437,4.57261274 36.8841197,4.84327781 C37.1537958,5.11364707 37.1581268,5.5570645 36.8942254,5.83334993 L32.8747817,10.0376807 C32.7410986,10.1778941 32.5638169,10.2482966 32.3865352,10.2482966" id="Fill-10" fill="#FFFFFF"></path>
                        <path d="M29.6117014,7.84109314 C29.5421169,7.84109314 29.4713775,7.83014821 29.4012155,7.80707512 C29.0417437,7.68756836 28.8448282,7.29295939 28.9611873,6.92497322 L30.4637507,2.16836739 C30.5801099,1.80008541 30.9649901,1.59804799 31.324462,1.71755475 C31.6836451,1.8364699 31.8805606,2.23167048 31.7642014,2.59936085 L30.2619268,7.35626248 C30.1683775,7.65236711 29.9001451,7.84109314 29.6117014,7.84109314" id="Fill-12" fill="#FFFFFF"></path>
                        <path d="M35.2865345,25.242964 C35.0619007,25.242964 34.8415979,25.1296692 34.7110908,24.9214198 L32.0703444,20.7173849 C31.8656331,20.3925868 31.9577387,19.958931 32.2750556,19.7497942 C32.5923725,19.5403616 33.0156542,19.634133 33.219788,19.9598185 L35.8605345,24.1638534 C36.0652458,24.4886515 35.9734289,24.9223072 35.6558232,25.1314441 C35.5414852,25.2071711 35.4129993,25.242964 35.2865345,25.242964" id="Fill-14" fill="#FFFFFF"></path>
                        <path d="M34.0831268,14.0406544 C33.7819789,14.0406544 33.5062394,13.8353631 33.423662,13.5235806 C33.3246268,13.1502698 33.5397324,12.7651268 33.9041127,12.6639601 L39.762493,11.0340535 C40.1265845,10.9322953 40.5022254,11.1532645 40.6015493,11.5262794 C40.7002958,11.8995902 40.4854789,12.2844374 40.1208099,12.3858999 L34.2624296,14.0161023 C34.202662,14.0326676 34.1423169,14.0406544 34.0831268,14.0406544" id="Fill-16" fill="#FFFFFF"></path>
                        <g id="Group-20" transform="translate(33.204225, 16.583338)" fill="#FFFFFF">
                            <path d="M6.96904718,3.79324524 C6.89426549,3.79324524 6.81861761,3.78082127 6.74441338,3.75419848 L0.586040141,1.55781799 C0.229166901,1.43091601 0.0409133803,1.0315741 0.16506831,0.666250206 C0.288934507,0.300926313 0.678723239,0.107467344 1.03530775,0.234960946 L7.19368099,2.43134144 C7.55026549,2.55853923 7.73851901,2.95758533 7.61436408,3.32290922 C7.5164838,3.61191444 7.2517162,3.79324524 6.96904718,3.79324524" id="Fill-18"></path>
                        </g>
                        <path d="M16.2747479,39.9522351 C16.2334592,39.9522351 16.1924592,39.9483895 16.1514592,39.9406985 L13.4659592,39.4366403 C13.2779944,39.4011432 13.1125507,39.2866652 13.0106282,39.1204207 L5.00465634,26.0767307 C4.80369859,25.7492704 4.89984648,25.3165021 5.21947324,25.1109149 C5.5391,24.905032 5.96093803,25.0038321 6.16218451,25.3309967 L14.0079099,38.1140791 L16.1303817,38.5125335 L20.3914944,35.6757269 L19.7675437,34.6927542 L17.8448746,34.609632 C17.6101352,34.5995745 17.3970507,34.4667563 17.2801141,34.2576195 L14.3165648,28.9466679 C14.2068465,28.7505467 14.1967408,28.5121247 14.2885577,28.3071292 L15.6190366,25.3360254 L15.100762,23.4262837 C14.9997056,23.0532688 15.2122127,22.6672383 15.5763042,22.564001 C15.9392408,22.4601721 16.3169028,22.6781832 16.4179592,23.0509023 L17.002931,25.2070528 C17.0462408,25.3667896 17.0329592,25.5368796 16.9659732,25.6868547 L15.677938,28.5638913 L18.2799944,33.2264299 L20.1772549,33.308369 C20.3981352,33.3178348 20.6005366,33.4364542 20.7212268,33.6260676 L21.9108042,35.4991291 C22.0095507,35.6550203 22.0436211,35.8449296 22.0066634,36.0265562 C21.9688394,36.2081828 21.8622972,36.3676238 21.7101352,36.4687904 L16.6472127,39.8392361 C16.5354732,39.9131883 16.4061211,39.9522351 16.2747479,39.9522351" id="Fill-21" fill="#FFFFFF"></path>
                        <g id="Group-25" transform="translate(0.000000, 15.695912)" fill="#FFFFFF">
                            <path d="M2.64005352,10.1427224 C2.4313,10.1427224 2.22947606,10.0445139 2.09781408,9.86880344 C2.05392676,9.81023329 1.00987042,8.39153419 0.361088732,5.24383254 C-0.277009859,2.14848904 0.10758169,1.04660119 0.191314085,0.856987733 C0.271004225,0.676248544 0.421433803,0.538993251 0.605933803,0.478648252 L1.76837042,0.0973506827 C2.12755352,-0.0197896101 2.51301127,0.182839432 2.62763803,0.551121413 C2.74255352,0.919403394 2.54477183,1.31342074 2.18501127,1.43144846 L1.3964831,1.68998537 C1.34537746,2.12955728 1.32112394,3.12229168 1.69878592,4.95453151 C2.0926169,6.86516068 2.63687746,8.05490375 2.94553239,8.62226507 L3.61654648,8.42288993 C3.9803493,8.31373647 4.35858873,8.52878948 4.46368732,8.90002955 C4.56907465,9.27156543 4.36032113,9.65996241 3.99796197,9.76763682 L2.83090563,10.1149164 C2.76767324,10.1338481 2.70386338,10.1427224 2.64005352,10.1427224" id="Fill-23"></path>
                        </g>
                        <path d="M16.7044683,16.195947 C16.4397007,16.195947 16.1879261,16.0373935 16.0764754,15.7723488 C15.926912,15.4173782 16.086581,15.0053165 16.4333486,14.8520876 C17.7528556,14.2690484 18.9805458,13.5301179 20.0823486,12.6565945 C20.3808979,12.4196516 20.810243,12.4758553 21.0415176,12.7814258 C21.2725035,13.0872921 21.2179331,13.5274557 20.9193838,13.7638069 C19.7266303,14.7100993 18.3996162,15.509079 16.9750106,16.1385601 C16.8866585,16.1773111 16.7945528,16.195947 16.7044683,16.195947" id="Fill-26" fill="#FFFFFF"></path>
                        <path d="M22.7058289,11.8012929 C22.5447162,11.8012929 22.3833148,11.7436102 22.2533852,11.6255824 C21.9704275,11.3697078 21.9435754,10.9271778 22.1939063,10.6372852 C22.5195965,10.2592415 22.8158359,9.87705651 23.0733852,9.50108349 C23.2908007,9.18427225 23.7172585,9.10854519 24.0259134,9.33069761 C24.334857,9.55285004 24.4090613,9.99005547 24.1919345,10.3062751 C23.9052232,10.7245488 23.5778007,11.148147 23.2180401,11.5646458 C23.0832021,11.7214245 22.8946599,11.8012929 22.7058289,11.8012929" id="Fill-28" fill="#FFFFFF"></path>
                        <path d="M30.6527261,17.4543178 C30.4803528,17.4543178 30.3079796,17.3877608 30.1748739,17.2546468 C29.9049092,16.9839817 29.9002894,16.5408601 30.1644796,16.2642789 L30.8756275,15.5188406 L30.2586063,12.8006534 L29.4490007,12.5036613 C29.0935711,12.3732097 28.9084937,11.9726845 29.0355359,11.6079522 C29.1628669,11.2441074 29.5549655,11.0547897 29.9098176,11.1852414 L31.0699444,11.6103187 C31.2888035,11.6907787 31.4528035,11.8789131 31.5056415,12.111123 L32.2927261,15.5753401 C32.3452754,15.8084375 32.2785782,16.0527756 32.1151556,16.2237531 L31.14155,17.2437019 C31.0075782,17.3842111 30.8302965,17.4543178 30.6527261,17.4543178" id="Fill-30" fill="#FFFFFF"></path>
                    </g>
                </g>
            </g>
        </g>
    </g>
</svg>