<?xml version="1.0" encoding="UTF-8" standalone="no"?>
<svg width="91px" height="61px" viewBox="0 0 91 61" version="1.1" xmlns="http://www.w3.org/2000/svg" xmlns:xlink="http://www.w3.org/1999/xlink">
    <!-- Generator: sketchtool 41.2 (35397) - http://www.bohemiancoding.com/sketch -->
    <title>D7499013-A9C9-4B51-8582-A81CD49AADC3</title>
    <desc>Created with sketchtool.</desc>
    <defs></defs>
    <g id="website" stroke="none" stroke-width="1" fill="none" fill-rule="evenodd">
        <g id="About-Us" transform="translate(-188.000000, -40.000000)">
            <g id="Page-1" transform="translate(188.000000, 41.000000)">
                <polygon id="Fill-1" fill="#00416B" points="78.0087252 47.0037377 90.5300383 47.0037377 90.5300383 34.658992 78.0087252 34.658992"></polygon>
                <g id="Group-10" transform="translate(0.000000, 0.050811)">
                    <path d="M80.2921079,29.7880046 C80.2921079,25.0522062 79.0728309,21.194065 76.6346867,18.1493025 C73.8573421,14.834162 69.9283556,13.1429221 64.9157723,13.1429221 C63.1543894,13.1429221 61.1894863,13.6159305 59.0905426,14.4962405 L59.0905426,0.0823377565 L48.3174953,0.0823377565 L48.3174953,36.2834027 C48.3174953,37.2310521 48.3392205,39.5244698 48.2471957,46.1639334 L58.4123466,46.1639334 L58.4795718,44.2004789 C60.9865809,45.9588543 63.1543894,46.907728 65.0500178,46.907728 C69.9955809,46.907728 73.8573421,45.1479243 76.6346867,41.6303574 C79.0728309,38.5158068 80.2921079,34.5921627 80.2921079,29.7880046 M69.2497498,30.1926533 C69.2497498,32.3581261 68.7088736,34.1193583 67.6916822,35.3357532 C66.6771552,36.6225485 65.4578782,37.2310521 63.9670358,37.2310521 C60.7160403,37.2310521 59.0905426,34.9311045 59.0905426,30.3293728 C59.0905426,25.4568549 60.7160403,22.9534606 63.9670358,22.9534606 C65.4578782,22.9534606 66.7443804,23.6988877 67.7617768,25.1191375 C68.7088736,26.5410197 69.2497498,28.2322597 69.2497498,30.1926533" id="Fill-2" fill="#F3752A"></path>
                    <path d="M80.2921079,29.7880046 C80.2921079,25.0522062 79.0728309,21.194065 76.6346867,18.1493025 C73.8573421,14.834162 69.9283556,13.1429221 64.9157723,13.1429221 C63.1543894,13.1429221 61.1894863,13.6159305 59.0905426,14.4962405 L59.0905426,0.0823377565 L48.3174953,0.0823377565 L48.3174953,36.2834027 C48.3174953,37.2310521 48.3392205,39.5244698 48.2471957,46.1639334 L58.4123466,46.1639334 L58.4795718,44.2004789 C60.9865809,45.9588543 63.1543894,46.907728 65.0500178,46.907728 C69.9955809,46.907728 73.8573421,45.1479243 76.6346867,41.6303574 C79.0728309,38.5158068 80.2921079,34.5921627 80.2921079,29.7880046 L80.2921079,29.7880046 Z M69.2497498,30.1926533 C69.2497498,32.3581261 68.7088736,34.1193583 67.6916822,35.3357532 C66.6771552,36.6225485 65.4578782,37.2310521 63.9670358,37.2310521 C60.7160403,37.2310521 59.0905426,34.9311045 59.0905426,30.3293728 C59.0905426,25.4568549 60.7160403,22.9534606 63.9670358,22.9534606 C65.4578782,22.9534606 66.7443804,23.6988877 67.7617768,25.1191375 C68.7088736,26.5410197 69.2497498,28.2322597 69.2497498,30.1926533 L69.2497498,30.1926533 Z" id="Stroke-4" stroke="#F3752A" stroke-width="1.30299997"></path>
                    <path d="M48.0951601,46.9215836 L48.0951601,27.6845453 C48.0951601,23.701112 46.990043,20.4033165 44.7820633,17.930531 C42.2984191,15.1826742 38.8486173,13.8089498 34.2930836,13.8089498 C30.4302975,13.8089498 27.3942998,14.9063785 25.2543651,17.1053169 C23.0461804,14.9063785 20.7008809,13.8089498 18.215802,13.8089498 C15.7323628,13.8089498 13.6625227,14.4274523 11.8673223,15.6616004 L11.3170182,14.495812 L0.000840315315,14.495812 C0.551144369,19.8531737 0.897518243,23.0826095 0.897518243,24.1116784 L0.897518243,46.9215836 L12.5572007,46.9215836 L12.5572007,28.4413996 C12.5572007,25.6935428 13.5936579,24.3196144 15.8018426,24.3196144 C17.733543,24.3196144 18.6988809,25.4184715 18.6988809,27.479262 L18.6988809,46.9215836 L30.4302975,46.9215836 L30.4302975,28.4413996 C30.4302975,25.6935428 31.3958403,24.3196144 33.4658854,24.3196144 C35.3982007,24.3196144 36.4324034,25.5551909 36.4324034,27.8910529 L36.4324034,46.9215836 L48.0951601,46.9215836 Z" id="Fill-6" fill="#0889AE"></path>
                    <path d="M2.16782905,51.1340934 L0.849968694,51.1340934 L0.849968694,59.575397 L1.7126241,59.575397 L1.7126241,52.2776394 L1.73660383,52.2776394 L4.80191014,59.575397 L5.25732005,59.575397 L8.32262635,52.2776394 L8.34681104,52.2776394 L8.34681104,59.575397 L9.20905653,59.575397 L9.20905653,51.1340934 L7.89119617,51.1340934 L5.02920518,58.0002665 L2.16782905,51.1340934 Z M20.0942142,55.9384556 L23.2669169,51.1340934 L22.1896736,51.1340934 L19.662989,55.1160983 L17.1363043,51.1340934 L16.0582412,51.1340934 L19.2317637,55.9384556 L19.2317637,59.575397 L20.0942142,59.575397 L20.0942142,55.9384556 Z M40.1759056,55.5452342 L41.9360588,55.5452342 C42.6302412,55.5452342 43.1571804,55.6807293 43.5168764,55.9498829 C43.8757525,56.220465 44.055498,56.6340923 44.055498,57.1899487 C44.055498,57.4691012 43.9970858,57.7064217 43.8816962,57.9059913 C43.7669214,58.1037244 43.6082863,58.2698283 43.4088651,58.4008341 C43.2100588,58.5316358 42.9729259,58.6279516 42.7027953,58.691822 C42.4314349,58.7561006 42.139784,58.7881378 41.8286624,58.7881378 L40.1759056,58.7881378 L40.1759056,55.5452342 Z M40.1759056,51.9203323 L41.8286624,51.9203323 C42.2357029,51.9203323 42.558507,51.9784891 42.7983043,52.0929661 C43.0372818,52.2082594 43.2186669,52.3449788 43.3428696,52.505165 C43.4672773,52.6635147 43.5470047,52.8220685 43.5826669,52.9808263 C43.618534,53.1410125 43.636775,53.2632438 43.636775,53.350581 C43.636775,53.621163 43.5841016,53.849913 43.4810092,54.0362188 C43.377302,54.2225245 43.2428516,54.376589 43.0797074,54.4959634 C42.9159484,54.6153379 42.7325137,54.7000223 42.5287885,54.7520573 C42.3248583,54.8045004 42.1203133,54.8291916 41.9118741,54.8291916 L40.1759056,54.8291916 L40.1759056,51.9203323 Z M39.3134552,59.575397 L41.9001917,59.575397 C42.5783876,59.575397 43.1213133,59.4792852 43.5285588,59.2886942 C43.9358043,59.0978992 44.2469259,58.8724141 44.4625385,58.6146878 C44.6783561,58.3569614 44.81998,58.0965823 44.888025,57.8347748 C44.9552502,57.5711307 44.9896827,57.3733976 44.9896827,57.2379025 C44.9896827,56.6177676 44.81998,56.1231289 44.4809845,55.7533742 C44.1409642,55.3838236 43.6724372,55.1756835 43.0731489,55.1275256 L43.0731489,55.1042629 C43.5525385,54.9920306 43.9224822,54.7710348 44.1811354,54.4422959 C44.4397885,54.113353 44.5701399,53.7156423 44.5701399,53.2558976 C44.5701399,52.8571666 44.4941016,52.5241425 44.3426399,52.2545807 C44.1915881,51.9837946 43.9882727,51.7658597 43.732489,51.5983274 C43.4758854,51.4309991 43.1858741,51.3116247 42.8583561,51.2404081 C42.5302232,51.1687835 42.1918426,51.1340934 41.8401399,51.1340934 L39.3134552,51.1340934 L39.3134552,59.575397 Z M59.8142795,56.7428557 C59.6546196,57.184031 59.42548,57.5711307 59.1256309,57.9059913 C58.8274214,58.2390154 58.4619867,58.5055163 58.0291218,58.7050859 C57.5995363,58.9028189 57.1113336,59.0019915 56.5692277,59.0019915 C56.026507,59.0019915 55.5383043,58.9028189 55.1089236,58.7050859 C54.6772885,58.5055163 54.3120588,58.2390154 54.0124146,57.9059913 C53.7142052,57.5711307 53.4832209,57.184031 53.3241759,56.7428557 C53.164311,56.3018845 53.0839687,55.8376505 53.0839687,55.3548472 C53.0839687,54.8700033 53.164311,54.4055653 53.3241759,53.9647982 C53.4832209,53.5238269 53.7142052,53.1367273 54.0124146,52.8018666 C54.3120588,52.4688426 54.6772885,52.2021376 55.1089236,52.0046086 C55.5383043,51.805039 56.026507,51.7060705 56.5692277,51.7060705 C57.1113336,51.7060705 57.5995363,51.805039 58.0291218,52.0046086 C58.4619867,52.2021376 58.8274214,52.4688426 59.1256309,52.8018666 C59.42548,53.1367273 59.6546196,53.5238269 59.8142795,53.9647982 C59.9735295,54.4055653 60.0540768,54.8700033 60.0540768,55.3548472 C60.0540768,55.8376505 59.9735295,56.3018845 59.8142795,56.7428557 L59.8142795,56.7428557 Z M60.6517255,53.5779025 C60.4281196,53.0363303 60.1196624,52.5704639 59.7249191,52.1760181 C59.3301759,51.7832047 58.8624687,51.4744636 58.3230273,51.2534679 C57.7837908,51.0308397 57.1990543,50.9186073 56.5692277,50.9186073 C55.9373516,50.9186073 55.3540498,51.0308397 54.8148133,51.2534679 C54.2753718,51.4744636 53.8090993,51.7832047 53.4129214,52.1760181 C53.0181782,52.5704639 52.7082863,53.0363303 52.48632,53.5779025 C52.2610745,54.1192707 52.149989,54.7098171 52.149989,55.3548472 C52.149989,55.9978368 52.2610745,56.5889953 52.48632,57.1301595 C52.7082863,57.6715277 53.0181782,58.1373941 53.4129214,58.5316358 C53.8090993,58.9248573 54.2753718,59.2331902 54.8148133,59.4560225 C55.3540498,59.6770183 55.9373516,59.7892507 56.5692277,59.7892507 C57.1990543,59.7892507 57.7837908,59.6770183 58.3230273,59.4560225 C58.8624687,59.2331902 59.3301759,58.9248573 59.7249191,58.5316358 C60.1196624,58.1373941 60.4281196,57.6715277 60.6517255,57.1301595 C60.8751264,56.5889953 60.9878516,55.9978368 60.9878516,55.3548472 C60.9878516,54.7098171 60.8751264,54.1192707 60.6517255,53.5779025 L60.6517255,53.5779025 Z M75.6700047,56.7428557 C75.5091151,57.184031 75.2795655,57.5711307 74.9801264,57.9059913 C74.6819169,58.2390154 74.3162773,58.5055163 73.8836173,58.7050859 C73.4536218,58.9028189 72.9658291,59.0019915 72.4249529,59.0019915 C71.8812074,59.0019915 71.3942345,58.9028189 70.9628043,58.7050859 C70.531784,58.5055163 70.1661444,58.2390154 69.8669101,57.9059913 C69.5684957,57.5711307 69.3375115,57.184031 69.1796962,56.7428557 C69.0190115,56.3018845 68.9401038,55.8376505 68.9401038,55.3548472 C68.9401038,54.8700033 69.0190115,54.4055653 69.1796962,53.9647982 C69.3375115,53.5238269 69.5684957,53.1367273 69.8669101,52.8018666 C70.1661444,52.4688426 70.531784,52.2021376 70.9628043,52.0046086 C71.3942345,51.805039 71.8812074,51.7060705 72.4249529,51.7060705 C72.9658291,51.7060705 73.4536218,51.805039 73.8836173,52.0046086 C74.3162773,52.2021376 74.6819169,52.4688426 74.9801264,52.8018666 C75.2795655,53.1367273 75.5091151,53.5238269 75.6700047,53.9647982 C75.8276151,54.4055653 75.9079574,54.8700033 75.9079574,55.3548472 C75.9079574,55.8376505 75.8276151,56.3018845 75.6700047,56.7428557 L75.6700047,56.7428557 Z M76.5074507,53.5779025 C76.2824101,53.0363303 75.9739529,52.5704639 75.5794146,52.1760181 C75.1846714,51.7832047 74.7167592,51.4744636 74.1789574,51.2534679 C73.6397209,51.0308397 73.0533448,50.9186073 72.4249529,50.9186073 C71.7916421,50.9186073 71.2085453,51.0308397 70.6695137,51.2534679 C70.1298673,51.4744636 69.6633899,51.7832047 69.2676218,52.1760181 C68.8726736,52.5704639 68.5627818,53.0363303 68.3404056,53.5779025 C68.11557,54.1192707 68.0044845,54.7098171 68.0044845,55.3548472 C68.0044845,55.9978368 68.11557,56.5889953 68.3404056,57.1301595 C68.5627818,57.6715277 68.8726736,58.1373941 69.2676218,58.5316358 C69.6633899,58.9248573 70.1298673,59.2331902 70.6695137,59.4560225 C71.2085453,59.6770183 71.7916421,59.7892507 72.4249529,59.7892507 C73.0533448,59.7892507 73.6397209,59.6770183 74.1789574,59.4560225 C74.7167592,59.2331902 75.1846714,58.9248573 75.5794146,58.5316358 C75.9739529,58.1373941 76.2824101,57.6715277 76.5074507,57.1301595 C76.7310565,56.5889953 76.8423471,55.9978368 76.8423471,55.3548472 C76.8423471,54.7098171 76.7310565,54.1192707 76.5074507,53.5779025 L76.5074507,53.5779025 Z M85.2969439,51.1340934 L84.4346984,51.1340934 L84.4346984,59.575397 L85.2969439,59.575397 L85.2969439,55.222209 L85.3086264,55.222209 L85.4404124,55.222209 L89.6079664,59.575397 L90.8764327,59.575397 L86.3629146,54.9601974 L90.63848,51.1340934 L89.4048561,51.1340934 L85.4172525,54.7942975 L85.3086264,54.7942975 L85.2969439,54.7942975 L85.2969439,51.1340934 Z" id="Fill-8" fill="#231F1F"></path>
                </g>
            </g>
        </g>
    </g>
</svg>