<?xml version="1.0" encoding="UTF-8" standalone="no"?>
<svg width="315px" height="212px" viewBox="0 0 315 212" version="1.1" xmlns="http://www.w3.org/2000/svg" xmlns:xlink="http://www.w3.org/1999/xlink">
    <!-- Generator: sketchtool 41.2 (35397) - http://www.bohemiancoding.com/sketch -->
    <title>C33B6F69-2DBA-4EFA-ACC3-8D5E4ED3850B</title>
    <desc>Created with sketchtool.</desc>
    <defs></defs>
    <g id="website" stroke="none" stroke-width="1" fill="none" fill-rule="evenodd">
        <g id="HOME-page-blue" transform="translate(-563.000000, -357.000000)">
            <g id="Page-1" transform="translate(563.000000, 361.000000)">
                <polygon id="Fill-1" fill="#00416B" points="270.030203 163.192868 313.373209 163.192868 313.373209 120.33299 270.030203 120.33299"></polygon>
                <g id="Group-10" transform="translate(0.000000, 0.176410)">
                    <path d="M277.93422,103.421347 C277.93422,86.9790695 273.713645,73.5839407 265.273916,63.0127915 C255.66003,51.5029136 242.059693,45.6310763 224.708443,45.6310763 C218.611348,45.6310763 211.80976,47.2733203 204.544186,50.3296797 L204.544186,0.285869492 L167.252868,0.285869492 L167.252868,125.972802 C167.252868,129.262958 167.328071,137.225503 167.009524,160.277141 L202.196584,160.277141 L202.429287,153.460198 C211.107395,159.565124 218.611348,162.859531 225.173139,162.859531 C242.292395,162.859531 255.66003,156.749646 265.273916,144.536961 C273.713645,133.723514 277.93422,120.100964 277.93422,103.421347 M239.710672,104.826253 C239.710672,112.344585 237.838409,118.459429 234.317361,122.682646 C230.805537,127.150286 226.584963,129.262958 221.424355,129.262958 C210.170909,129.262958 204.544186,121.277741 204.544186,105.300931 C204.544186,88.3839746 210.170909,79.6924085 221.424355,79.6924085 C226.584963,79.6924085 231.03824,82.2804661 234.559997,87.2114492 C237.838409,92.1481 239.710672,98.0199373 239.710672,104.826253" id="Fill-2" fill="#F3752A"></path>
                    <path d="M277.93422,103.421347 C277.93422,86.9790695 273.713645,73.5839407 265.273916,63.0127915 C255.66003,51.5029136 242.059693,45.6310763 224.708443,45.6310763 C218.611348,45.6310763 211.80976,47.2733203 204.544186,50.3296797 L204.544186,0.285869492 L167.252868,0.285869492 L167.252868,125.972802 C167.252868,129.262958 167.328071,137.225503 167.009524,160.277141 L202.196584,160.277141 L202.429287,153.460198 C211.107395,159.565124 218.611348,162.859531 225.173139,162.859531 C242.292395,162.859531 255.66003,156.749646 265.273916,144.536961 C273.713645,133.723514 277.93422,120.100964 277.93422,103.421347 L277.93422,103.421347 Z M239.710672,104.826253 C239.710672,112.344585 237.838409,118.459429 234.317361,122.682646 C230.805537,127.150286 226.584963,129.262958 221.424355,129.262958 C210.170909,129.262958 204.544186,121.277741 204.544186,105.300931 C204.544186,88.3839746 210.170909,79.6924085 221.424355,79.6924085 C226.584963,79.6924085 231.03824,82.2804661 234.559997,87.2114492 C237.838409,92.1481 239.710672,98.0199373 239.710672,104.826253 L239.710672,104.826253 Z" id="Stroke-4" stroke="#F3752A" stroke-width="7.303"></path>
                    <path d="M166.483247,162.907636 L166.483247,96.1183207 C166.483247,82.2881885 162.657841,70.8385308 155.014834,62.2532359 C146.417605,52.7129173 134.475983,47.9434664 118.706828,47.9434664 C105.335645,47.9434664 94.8264223,51.7536427 87.4189561,59.3881647 C79.7752399,51.7536427 71.6568953,47.9434664 63.0546993,47.9434664 C54.4581791,47.9434664 47.293348,50.0908529 41.0791926,54.3757071 L39.1742939,50.3281919 L0.00290878378,50.3281919 C1.90780743,68.9284834 3.10679392,80.140802 3.10679392,83.7136393 L3.10679392,162.907636 L43.4672331,162.907636 L43.4672331,98.7460529 C43.4672331,89.2057342 47.0549696,84.4355749 54.6986858,84.4355749 C61.3853412,84.4355749 64.7268953,88.2507105 64.7268953,95.4055953 L64.7268953,162.907636 L105.335645,162.907636 L105.335645,98.7460529 C105.335645,89.2057342 108.677909,84.4355749 115.843449,84.4355749 C122.532233,84.4355749 126.112166,88.7253885 126.112166,96.8352969 L126.112166,162.907636 L166.483247,162.907636 Z" id="Fill-6" fill="#FFFFFF"></path>
                    <path d="M7.50402365,177.533102 L2.94219932,177.533102 L2.94219932,206.840569 L5.92831419,206.840569 L5.92831419,181.503393 L6.01132095,181.503393 L16.6219966,206.840569 L18.1984155,206.840569 L28.8090912,181.503393 L28.8928074,181.503393 L28.8928074,206.840569 L31.8775034,206.840569 L31.8775034,177.533102 L27.3156791,177.533102 L17.4087872,201.371854 L7.50402365,177.533102 Z M69.5568953,194.213427 L80.5393277,177.533102 L76.8104088,177.533102 L68.0641926,191.358275 L59.3179764,177.533102 L55.5862196,177.533102 L66.5714899,194.213427 L66.5714899,206.840569 L69.5568953,206.840569 L69.5568953,194.213427 Z M139.070443,192.848197 L145.16328,192.848197 C147.56622,192.848197 149.39024,193.318624 150.635341,194.253102 C151.877605,195.192539 152.499801,196.628617 152.499801,198.558502 C152.499801,199.527695 152.297605,200.351651 151.898179,201.044539 C151.500882,201.731051 150.95176,202.307749 150.261456,202.76259 C149.57328,203.216722 148.752436,203.551122 147.817368,203.772875 C146.878044,203.996044 145.868483,204.107275 144.791524,204.107275 L139.070443,204.107275 L139.070443,192.848197 Z M139.070443,180.262854 L144.791524,180.262854 C146.20051,180.262854 147.317909,180.464769 148.147976,180.862224 C148.975206,181.262512 149.603078,181.73719 150.03301,182.293342 C150.463652,182.843119 150.739632,183.393603 150.863078,183.944797 C150.987233,184.500949 151.050375,184.925325 151.050375,185.228553 C151.050375,186.16799 150.868044,186.96219 150.511186,187.609027 C150.152199,188.255864 149.686794,188.790763 149.122064,189.20522 C148.555206,189.619678 147.92024,189.913695 147.215037,190.094356 C146.509125,190.276434 145.801084,190.362159 145.079564,190.362159 L139.070443,190.362159 L139.070443,180.262854 Z M136.085037,206.840569 L145.039125,206.840569 C147.386726,206.840569 149.266084,206.506878 150.67578,205.845163 C152.085476,205.182739 153.162436,204.399875 153.908787,203.505071 C154.655848,202.610268 155.146084,201.706254 155.381625,200.797281 C155.614328,199.881932 155.733517,199.19542 155.733517,198.724993 C155.733517,196.571939 155.146084,194.854597 153.972639,193.570841 C152.795645,192.287793 151.173821,191.565149 149.099361,191.397949 L149.099361,191.317183 C150.758787,190.927522 152.039361,190.160244 152.934699,189.018892 C153.830037,187.876831 154.281253,186.496014 154.281253,184.89982 C154.281253,183.515461 154.018044,182.359231 153.493753,181.423336 C152.970882,180.48319 152.267098,179.726539 151.381693,179.144881 C150.493449,178.563932 149.489564,178.149475 148.355848,177.902217 C147.220003,177.653542 146.048686,177.533102 144.831253,177.533102 L136.085037,177.533102 L136.085037,206.840569 Z M207.049429,197.006234 C206.49676,198.537956 205.703584,199.881932 204.665645,201.044539 C203.633382,202.200769 202.368416,203.126037 200.870037,203.818925 C199.38301,204.505437 197.693078,204.849756 195.816557,204.849756 C193.937909,204.849756 192.247976,204.505437 190.761659,203.818925 C189.267537,203.126037 188.00328,202.200769 186.966051,201.044539 C185.933787,199.881932 185.134226,198.537956 184.583686,197.006234 C184.030307,195.47522 183.752199,193.863441 183.752199,192.18719 C183.752199,190.503854 184.030307,188.891366 184.583686,187.361061 C185.134226,185.830047 185.933787,184.486071 186.966051,183.323464 C188.00328,182.167234 189.267537,181.241258 190.761659,180.555454 C192.247976,179.862566 193.937909,179.518956 195.816557,179.518956 C197.693078,179.518956 199.38301,179.862566 200.870037,180.555454 C202.368416,181.241258 203.633382,182.167234 204.665645,183.323464 C205.703584,184.486071 206.49676,185.830047 207.049429,187.361061 C207.600679,188.891366 207.879497,190.503854 207.879497,192.18719 C207.879497,193.863441 207.600679,195.47522 207.049429,197.006234 L207.049429,197.006234 Z M209.94828,186.017793 C209.17426,184.137502 208.106524,182.520054 206.740105,181.150573 C205.373686,179.786759 203.754699,178.714837 201.887402,177.947559 C200.020814,177.174614 197.996726,176.784953 195.816557,176.784953 C193.629294,176.784953 191.610172,177.174614 189.743584,177.947559 C187.876287,178.714837 186.262267,179.786759 184.890882,181.150573 C183.524463,182.520054 182.45176,184.137502 181.683416,186.017793 C180.90372,187.897376 180.519193,189.947702 180.519193,192.18719 C180.519193,194.419593 180.90372,196.472044 181.683416,198.350919 C182.45176,200.230502 183.524463,201.847949 184.890882,203.216722 C186.262267,204.581953 187.876287,205.652458 189.743584,206.426112 C191.610172,207.19339 193.629294,207.583051 195.816557,207.583051 C197.996726,207.583051 200.020814,207.19339 201.887402,206.426112 C203.754699,205.652458 205.373686,204.581953 206.740105,203.216722 C208.106524,201.847949 209.17426,200.230502 209.94828,198.350919 C210.721591,196.472044 211.111794,194.419593 211.111794,192.18719 C211.111794,189.947702 210.721591,187.897376 209.94828,186.017793 L209.94828,186.017793 Z M261.934632,197.006234 C261.377706,198.537956 260.583111,199.881932 259.546591,201.044539 C258.514328,202.200769 257.248652,203.126037 255.750983,203.818925 C254.262537,204.505437 252.574024,204.849756 250.70176,204.849756 C248.819564,204.849756 247.133889,204.505437 245.640476,203.818925 C244.148483,203.126037 242.882807,202.200769 241.846997,201.044539 C240.814024,199.881932 240.014463,198.537956 239.468179,197.006234 C238.911963,195.47522 238.638821,193.863441 238.638821,192.18719 C238.638821,190.503854 238.911963,188.891366 239.468179,187.361061 C240.014463,185.830047 240.814024,184.486071 241.846997,183.323464 C242.882807,182.167234 244.148483,181.241258 245.640476,180.555454 C247.133889,179.862566 248.819564,179.518956 250.70176,179.518956 C252.574024,179.518956 254.262537,179.862566 255.750983,180.555454 C257.248652,181.241258 258.514328,182.167234 259.546591,183.323464 C260.583111,184.486071 261.377706,185.830047 261.934632,187.361061 C262.480206,188.891366 262.758314,190.503854 262.758314,192.18719 C262.758314,193.863441 262.480206,195.47522 261.934632,197.006234 L261.934632,197.006234 Z M264.833483,186.017793 C264.054497,184.137502 262.98676,182.520054 261.621051,181.150573 C260.254632,179.786759 258.634936,178.714837 256.773314,177.947559 C254.906726,177.174614 252.876963,176.784953 250.70176,176.784953 C248.50953,176.784953 246.491118,177.174614 244.62524,177.947559 C242.757233,178.714837 241.142503,179.786759 239.772537,181.150573 C238.405409,182.520054 237.332706,184.137502 236.562943,186.017793 C235.784666,187.897376 235.400139,189.947702 235.400139,192.18719 C235.400139,194.419593 235.784666,196.472044 236.562943,198.350919 C237.332706,200.230502 238.405409,201.847949 239.772537,203.216722 C241.142503,204.581953 242.757233,205.652458 244.62524,206.426112 C246.491118,207.19339 248.50953,207.583051 250.70176,207.583051 C252.876963,207.583051 254.906726,207.19339 256.773314,206.426112 C258.634936,205.652458 260.254632,204.581953 261.621051,203.216722 C262.98676,201.847949 264.054497,200.230502 264.833483,198.350919 C265.607503,196.472044 265.99274,194.419593 265.99274,192.18719 C265.99274,189.947702 265.607503,187.897376 264.833483,186.017793 L264.833483,186.017793 Z M295.258652,177.533102 L292.273956,177.533102 L292.273956,206.840569 L295.258652,206.840569 L295.258652,191.726681 L295.299091,191.726681 L295.755274,191.726681 L310.181422,206.840569 L314.572267,206.840569 L298.948551,190.817 L313.748584,177.533102 L309.478348,177.533102 L295.675105,190.24101 L295.299091,190.24101 L295.258652,190.24101 L295.258652,177.533102 Z" id="Fill-8" fill="#231F1F"></path>
                </g>
            </g>
        </g>
    </g>
</svg>