<?xml version="1.0" encoding="UTF-8" standalone="no"?>
<svg width="40px" height="36px" viewBox="0 0 40 36" version="1.1" xmlns="http://www.w3.org/2000/svg" xmlns:xlink="http://www.w3.org/1999/xlink">
    <!-- Generator: sketchtool 41.2 (35397) - http://www.bohemiancoding.com/sketch -->
    <title>52C62BBC-D728-49CB-A0CC-519D0CD086D9</title>
    <desc>Created with sketchtool.</desc>
    <defs>
        <polygon id="path-1" points="33.28 25.0375041 33.28 0.0775040003 6.4e-05 0.0775040003 6.4e-05 25.0375041 33.28 25.0375041"></polygon>
    </defs>
    <g id="website" stroke="none" stroke-width="1" fill="none" fill-rule="evenodd">
        <g id="HOME-page-blue" transform="translate(-379.000000, -800.000000)">
            <g id="Group" transform="translate(342.000000, 793.000000)">
                <g id="Page-1" transform="translate(37.000000, 7.000000)">
                    <g id="Group-3" transform="translate(6.720000, 0.242560)">
                        <mask id="mask-2" fill="white">
                            <use xlink:href="#path-1"></use>
                        </mask>
                        <g id="Clip-2"></g>
                        <path d="M21.120064,25.0375041 L4.000064,25.0375041 C1.794304,25.0375041 6.4e-05,23.2432641 6.4e-05,21.0375041 L6.4e-05,4.07750402 C6.4e-05,1.87174401 1.794304,0.0775040003 4.000064,0.0775040003 L29.280064,0.0775040003 C31.485824,0.0775040003 33.280064,1.87174401 33.280064,4.07750402 L33.280064,21.0375041 C33.280064,22.8023041 32.098304,24.3808641 30.406464,24.8765441 C29.982464,25.0010241 29.537984,24.7578241 29.413504,24.3338241 C29.289344,23.9098241 29.532224,23.4653441 29.956224,23.3411841 C30.971264,23.0439041 31.680064,22.0967041 31.680064,21.0375041 L31.680064,4.07750402 C31.680064,2.75398401 30.603584,1.67750401 29.280064,1.67750401 L4.000064,1.67750401 C2.676544,1.67750401 1.600064,2.75398401 1.600064,4.07750402 L1.600064,21.0375041 C1.600064,22.3610241 2.676544,23.4375041 4.000064,23.4375041 L21.120064,23.4375041 C21.561984,23.4375041 21.920064,23.7955841 21.920064,24.2375041 C21.920064,24.6794241 21.561984,25.0375041 21.120064,25.0375041" id="Fill-1" fill="#FFFFFF" mask="url(#mask-2)"></path>
                    </g>
                    <path d="M33.760384,32.3700801 C33.525824,32.3700801 33.297664,32.2667201 33.142464,32.0785601 L27.286784,24.9675201 C27.005824,24.6264001 27.054464,24.1220801 27.395584,23.8414401 C27.736384,23.5611201 28.241024,23.6094401 28.521664,23.9502401 L32.960064,29.3400001 L32.960064,24.3201601 C32.960064,23.8782401 33.318144,23.5201601 33.760064,23.5201601 C34.201984,23.5201601 34.560064,23.8782401 34.560064,24.3201601 L34.560064,31.5700801 C34.560064,31.9076801 34.348224,32.2091201 34.030144,32.3230401 C33.941824,32.3547201 33.850624,32.3700801 33.760384,32.3700801" id="Fill-4" fill="#FFFFFF"></path>
                    <path d="M1.023168,11.30304 C0.924928,11.30304 0.825728,11.2848 0.728768,11.24672 C0.318208,11.08384 0.116928,10.6192 0.279808,10.20832 C0.887808,8.67232004 2.348288,7.68000003 4.000128,7.68000003 L4.800128,7.68000003 C5.242048,7.68000003 5.600128,8.03808003 5.600128,8.48000004 C5.600128,8.92192004 5.242048,9.28000004 4.800128,9.28000004 L4.000128,9.28000004 C3.008768,9.28000004 2.132288,9.87584004 1.767168,10.79744 C1.643008,11.11136 1.341888,11.30304 1.023168,11.30304" id="Fill-6" fill="#FFFFFF"></path>
                    <path d="M0.800064,16.4797441 C0.358144,16.4797441 6.4e-05,16.1216641 6.4e-05,15.6797441 L6.4e-05,12.4791041 C6.4e-05,12.0371841 0.358144,11.679104 0.800064,11.679104 C1.241984,11.679104 1.600064,12.0371841 1.600064,12.4791041 L1.600064,15.6797441 C1.600064,16.1216641 1.241984,16.4797441 0.800064,16.4797441" id="Fill-8" fill="#FFFFFF"></path>
                    <path d="M0.800064,22.7735041 C0.358144,22.7735041 6.4e-05,22.4154241 6.4e-05,21.9735041 L6.4e-05,18.2400641 C6.4e-05,17.7981441 0.358144,17.4400641 0.800064,17.4400641 C1.241984,17.4400641 1.600064,17.7981441 1.600064,18.2400641 L1.600064,21.9735041 C1.600064,22.4154241 1.241984,22.7735041 0.800064,22.7735041" id="Fill-10" fill="#FFFFFF"></path>
                    <path d="M5.440064,30.4000641 L4.000064,30.4000641 C1.794304,30.4000641 6.4e-05,28.6058241 6.4e-05,26.4000641 L6.4e-05,25.2800641 C6.4e-05,24.8381441 0.358144,24.4800641 0.800064,24.4800641 C1.241984,24.4800641 1.600064,24.8381441 1.600064,25.2800641 L1.600064,26.4000641 C1.600064,27.7235841 2.676544,28.8000641 4.000064,28.8000641 L5.440064,28.8000641 C5.881984,28.8000641 6.240064,29.1581441 6.240064,29.6000641 C6.240064,30.0419841 5.881984,30.4000641 5.440064,30.4000641" id="Fill-12" fill="#FFFFFF"></path>
                    <path d="M13.332864,30.4000641 L10.560064,30.4000641 C10.118144,30.4000641 9.760064,30.0419841 9.760064,29.6000641 C9.760064,29.1581441 10.118144,28.8000641 10.560064,28.8000641 L13.332864,28.8000641 C13.774784,28.8000641 14.132864,29.1581441 14.132864,29.6000641 C14.132864,30.0419841 13.774784,30.4000641 13.332864,30.4000641" id="Fill-14" fill="#FFFFFF"></path>
                    <path d="M18.453184,30.4000641 L16.000064,30.4000641 C15.558144,30.4000641 15.200064,30.0419841 15.200064,29.6000641 C15.200064,29.1581441 15.558144,28.8000641 16.000064,28.8000641 L18.453184,28.8000641 C18.895104,28.8000641 19.253184,29.1581441 19.253184,29.6000641 C19.253184,30.0419841 18.895104,30.4000641 18.453184,30.4000641" id="Fill-16" fill="#FFFFFF"></path>
                    <path d="M24.000672,30.4000641 L21.653472,30.4000641 C21.211552,30.4000641 20.853472,30.0419841 20.853472,29.6000641 C20.853472,29.1581441 21.211552,28.8000641 21.653472,28.8000641 L24.000672,28.8000641 C24.442592,28.8000641 24.800672,29.1581441 24.800672,29.6000641 C24.800672,30.0419841 24.442592,30.4000641 24.000672,30.4000641" id="Fill-18" fill="#FFFFFF"></path>
                    <path d="M28.320064,30.4000641 L26.454144,30.4000641 C26.012224,30.4000641 25.654144,30.0419841 25.654144,29.6000641 C25.654144,29.1581441 26.012224,28.8000641 26.454144,28.8000641 L28.228864,28.8000641 C28.302464,28.7751041 28.396864,28.7479041 28.510464,28.7386241 C28.949184,28.7021441 29.337664,29.0285441 29.374464,29.4688641 C29.409024,29.8823041 29.122944,30.2483841 28.723584,30.3223041 C28.629184,30.3562241 28.493824,30.4000641 28.320064,30.4000641" id="Fill-20" fill="#FFFFFF"></path>
                    <path d="M5.843168,35.7625602 C5.750048,35.7625602 5.656608,35.7465602 5.566368,35.7129602 C5.260768,35.6003202 5.053728,35.3132802 5.043488,34.9875201 L4.881248,29.7875201 C4.867168,29.3459201 5.214048,28.9766401 5.655648,28.9628801 C6.095008,28.9593601 6.466528,29.2960001 6.480288,29.7376001 L6.581408,32.9632001 L9.984608,29.2240001 C10.282208,28.8972801 10.788128,28.8732801 11.114848,29.1708801 C11.441568,29.4684801 11.465248,29.9744001 11.167968,30.3011201 L6.434848,35.5011202 C6.280288,35.6707202 6.063968,35.7625602 5.843168,35.7625602" id="Fill-22" fill="#FFFFFF"></path>
                    <path d="M15.010368,10.69664 C14.232448,10.69664 13.600128,11.32928 13.600128,12.1068801 C13.600128,12.8841601 14.232448,13.5168001 15.010368,13.5168001 C15.787968,13.5168001 16.420288,12.8841601 16.420288,12.1068801 C16.420288,11.32928 15.787968,10.69664 15.010368,10.69664 M15.010368,15.1168001 C13.350528,15.1168001 12.000128,13.7664001 12.000128,12.1068801 C12.000128,10.44704 13.350528,9.09664004 15.010368,9.09664004 C16.670208,9.09664004 18.020288,10.44704 18.020288,12.1068801 C18.020288,13.7664001 16.670208,15.1168001 15.010368,15.1168001" id="Fill-24" fill="#FFFFFF"></path>
                    <path d="M23.010368,10.69664 C22.232448,10.69664 21.600128,11.32928 21.600128,12.1068801 C21.600128,12.8841601 22.232448,13.5168001 23.010368,13.5168001 C23.787968,13.5168001 24.420288,12.8841601 24.420288,12.1068801 C24.420288,11.32928 23.787968,10.69664 23.010368,10.69664 M23.010368,15.1168001 C21.350528,15.1168001 20.000128,13.7664001 20.000128,12.1068801 C20.000128,10.44704 21.350528,9.09664004 23.010368,9.09664004 C24.670208,9.09664004 26.020288,10.44704 26.020288,12.1068801 C26.020288,13.7664001 24.670208,15.1168001 23.010368,15.1168001" id="Fill-26" fill="#FFFFFF"></path>
                    <path d="M30.690368,10.69664 C29.912768,10.69664 29.280128,11.32928 29.280128,12.1068801 C29.280128,12.8841601 29.912768,13.5168001 30.690368,13.5168001 C31.467968,13.5168001 32.100288,12.8841601 32.100288,12.1068801 C32.100288,11.32928 31.467968,10.69664 30.690368,10.69664 M30.690368,15.1168001 C29.030528,15.1168001 27.680128,13.7664001 27.680128,12.1068801 C27.680128,10.44704 29.030528,9.09664004 30.690368,9.09664004 C32.350208,9.09664004 33.700288,10.44704 33.700288,12.1068801 C33.700288,13.7664001 32.350208,15.1168001 30.690368,15.1168001" id="Fill-28" fill="#FFFFFF"></path>
                </g>
            </g>
        </g>
    </g>
</svg>