<?xml version="1.0" encoding="UTF-8" standalone="no"?>
<svg width="45px" height="36px" viewBox="0 0 45 36" version="1.1" xmlns="http://www.w3.org/2000/svg" xmlns:xlink="http://www.w3.org/1999/xlink">
    <!-- Generator: sketchtool 41.2 (35397) - http://www.bohemiancoding.com/sketch -->
    <title>D9F405BF-8488-4385-8369-540F3F807D2D</title>
    <desc>Created with sketchtool.</desc>
    <defs>
        <polygon id="path-1" points="22.0287176 0.247943501 0 0.247943501 0 34.8006954 22.0287176 34.8006954"></polygon>
    </defs>
    <g id="website" stroke="none" stroke-width="1" fill="none" fill-rule="evenodd">
        <g id="Issue" transform="translate(-807.000000, -54.000000)">
            <g id="Group-2" transform="translate(772.000000, 47.000000)">
                <g id="Page-1" transform="translate(35.000000, 7.000000)">
                    <path d="M32.4089216,33.5888243 L12.3849667,33.5888243 C11.9516949,33.5888243 11.6002318,33.2386199 11.5983439,32.805348 L11.4847556,4.80157694 C11.4841263,4.59264992 11.5665643,4.39158914 11.7141348,4.24307476 C11.8613906,4.09518968 12.0621367,4.01180766 12.2713784,4.01180766 L28.3184831,4.01180766 C28.7530136,4.01180766 29.1051059,4.36390002 29.1051059,4.79843044 C29.1051059,5.23296087 28.7530136,5.58505323 28.3184831,5.58505323 L13.0611476,5.58505323 L13.1687576,32.0155788 L31.6260746,32.0155788 L31.7311674,9.6754917 L28.3184831,9.6754917 C28.105151,9.6754917 27.9012584,9.5889632 27.7530587,9.43572908 C27.6045443,9.28249496 27.5252527,9.07577049 27.532175,8.86243839 L27.6114666,7.13186827 C27.6259404,6.70646267 27.9748863,6.37167601 28.3971454,6.37167601 C28.4062702,6.37167601 28.4153951,6.37167601 28.4242052,6.37199066 C28.858421,6.38677917 29.1985567,6.75051354 29.1840829,7.18472932 L29.1318511,8.10224614 L32.5212513,8.10224614 C32.730493,8.10224614 32.9312391,8.18562815 33.0788096,8.33382788 C33.2266947,8.48234226 33.3088181,8.68340305 33.3078741,8.89264471 L33.1955444,32.8059773 C33.1933419,33.2389345 32.8418788,33.5888243 32.4089216,33.5888243" id="Fill-1" fill="#000000"></path>
                    <path d="M32.4986595,9.62234747 C32.2702243,9.62989905 32.0408451,9.5386508 31.8788008,9.35332248 L28.4658019,5.57029619 C28.1801005,5.24274646 26.9425855,4.61218963 27.2698206,4.32680289 C27.5979996,4.04110149 29.1850897,3.78906755 29.4704765,4.11630263 L33.0650279,8.31907084 C33.3504147,8.64693522 33.3164326,9.14376617 32.9888829,9.42915291 C32.8469761,9.55281001 32.6732898,9.61636913 32.4986595,9.62234747" id="Fill-3" fill="#000000"></path>
                    <g id="Group-7" transform="translate(0.000000, 0.066706)">
                        <mask id="mask-2" fill="white">
                            <use xlink:href="#path-1"></use>
                        </mask>
                        <g id="Clip-6"></g>
                        <path d="M8.13179169,34.8006954 C7.99869511,34.8006954 7.86622784,34.7670279 7.74823442,34.7009516 C7.56196214,34.5971174 7.42634838,34.4221725 7.37159943,34.216392 L0.0264305255,6.58579473 C-0.0846406115,6.16699676 0.163617539,5.73718607 0.581786211,5.62391239 L20.4046804,0.274877465 C20.6117195,0.219184572 20.8335471,0.250334835 21.0173022,0.36203527 C21.2010573,0.473421056 21.331322,0.654973595 21.3778901,0.864844553 L22.0100201,3.73066868 C22.1037856,4.15513033 21.8357045,4.5745576 21.4115575,4.66832304 C20.9861519,4.76208847 20.5673539,4.49400743 20.4739032,4.06986042 L20.0189205,2.00859408 L1.74850512,6.93883104 L8.68337158,33.0267037 L12.158671,31.9820686 C12.5736932,31.8584115 13.013258,32.0934544 13.1384884,32.5091059 C13.2634041,32.925072 13.0277319,33.3640075 12.6114511,33.4889232 L8.35833905,34.7676572 C8.28376721,34.7896827 8.20762212,34.8006954 8.13179169,34.8006954" id="Fill-5" fill="#000000" mask="url(#mask-2)"></path>
                    </g>
                    <path d="M37.1646227,30.3704359 C37.0834432,30.3704359 37.0013198,30.3578499 36.920455,30.3314194 C36.5073207,30.1964349 36.2817173,29.752465 36.4163871,29.3396454 L43.0639789,8.96768852 L25.5301571,2.50416643 L24.5720505,5.07359109 C24.4194457,5.48074705 23.9657217,5.68715687 23.5598243,5.53549599 C23.1526684,5.38352047 22.9459439,4.93042575 23.0976048,4.5232698 L24.3300854,1.21976875 C24.4817462,0.813871397 24.9316945,0.606517631 25.3394797,0.756919907 L44.3187996,7.75377224 C44.7155721,7.90008408 44.9257577,8.33398521 44.7945491,8.73579213 L37.912229,29.8273515 C37.8036751,30.1593063 37.4956336,30.3704359 37.1646227,30.3704359" id="Fill-8" fill="#000000"></path>
                    <path d="M35.4506346,35.6220554 C35.3559252,35.6220554 35.2609012,35.6047497 35.1705969,35.5707676 L29.8284842,33.5375051 C29.4225869,33.3830123 29.2186943,32.9283444 29.373187,32.5221324 C29.5276797,32.116235 29.982033,31.912657 30.388245,32.0668351 L34.9591527,33.80653 L36.6481891,28.6292935 C36.7828589,28.2164739 37.2258849,27.5538229 37.6399631,27.689122 C38.0530974,27.8241065 38.1902844,28.9747783 38.0556146,29.3879125 L36.1985555,35.0792857 C36.1318499,35.2841223 35.9839648,35.4524596 35.7898263,35.545281 C35.6828456,35.5962542 35.5667401,35.6220554 35.4506346,35.6220554" id="Fill-10" fill="#000000"></path>
                    <path d="M29.2624305,14.3952284 L16.0471677,14.3952284 C15.6126373,14.3952284 15.2605449,14.043136 15.2605449,13.6086056 C15.2605449,13.1740752 15.6126373,12.8219828 16.0471677,12.8219828 L29.2624305,12.8219828 C29.6969609,12.8219828 30.0490533,13.1740752 30.0490533,13.6086056 C30.0490533,14.043136 29.6969609,14.3952284 29.2624305,14.3952284" id="Fill-12" fill="#000000"></path>
                    <path d="M28.9477814,17.2270704 L16.0471677,17.2270704 C15.6126373,17.2270704 15.2605449,16.8749781 15.2605449,16.4404476 C15.2605449,16.0059172 15.6126373,15.6538249 16.0471677,15.6538249 L28.9477814,15.6538249 C29.3823118,15.6538249 29.7344041,16.0059172 29.7344041,16.4404476 C29.7344041,16.8749781 29.3823118,17.2270704 28.9477814,17.2270704" id="Fill-14" fill="#000000"></path>
                    <path d="M28.6331323,20.0589124 L16.0471677,20.0589124 C15.6126373,20.0589124 15.2605449,19.7068201 15.2605449,19.2722897 C15.2605449,18.8377592 15.6126373,18.4856669 16.0471677,18.4856669 L28.6331323,18.4856669 C29.0676627,18.4856669 29.419755,18.8377592 29.419755,19.2722897 C29.419755,19.7068201 29.0676627,20.0589124 28.6331323,20.0589124" id="Fill-16" fill="#000000"></path>
                    <path d="M26.1159393,22.8907545 L16.0471677,22.8907545 C15.6126373,22.8907545 15.2605449,22.5386621 15.2605449,22.1041317 C15.2605449,21.6696013 15.6126373,21.3175089 16.0471677,21.3175089 L26.1159393,21.3175089 C26.5504698,21.3175089 26.9025621,21.6696013 26.9025621,22.1041317 C26.9025621,22.5386621 26.5504698,22.8907545 26.1159393,22.8907545" id="Fill-18" fill="#000000"></path>
                </g>
            </g>
        </g>
    </g>
</svg>