<svg width="58" height="40" viewBox="0 0 58 40" xmlns="http://www.w3.org/2000/svg"><title>05942BD3-FA8C-4F1B-A67C-40E0A26D896B</title><g fill="none" fill-rule="evenodd"><path fill="#E4E4E4" d="M49.72 31.052h7.98v-7.893h-7.98z"/><path d="M51.175 20.077c0-3.028-.777-5.494-2.33-7.44-1.771-2.12-4.275-3.202-7.47-3.202-1.123 0-2.375.303-3.713.866V1.085h-6.866V24.23c0 .606.014 2.072-.045 6.317h6.479l.043-1.255c1.598 1.124 2.98 1.73 4.187 1.73 3.153 0 5.614-1.124 7.384-3.373 1.554-1.992 2.331-4.5 2.331-7.572m-7.038.259c0 1.384-.345 2.51-.993 3.288-.646.823-1.424 1.212-2.374 1.212-2.072 0-3.108-1.47-3.108-4.413 0-3.115 1.036-4.715 3.108-4.715.95 0 1.77.476 2.419 1.384.603.91.948 1.99.948 3.244" fill="#CBCBCB"/><path d="M51.175 20.077c0-3.028-.777-5.494-2.33-7.44-1.771-2.12-4.275-3.202-7.47-3.202-1.123 0-2.375.303-3.713.866V1.085h-6.866V24.23c0 .606.014 2.072-.045 6.317h6.479l.043-1.255c1.598 1.124 2.98 1.73 4.187 1.73 3.153 0 5.614-1.124 7.384-3.373 1.554-1.992 2.331-4.5 2.331-7.572zm-7.038.259c0 1.384-.345 2.51-.993 3.288-.646.823-1.424 1.212-2.374 1.212-2.072 0-3.108-1.47-3.108-4.413 0-3.115 1.036-4.715 3.108-4.715.95 0 1.77.476 2.419 1.384.603.91.948 1.99.948 3.244z" stroke="#CCC" stroke-width="1.303" fill="#CCC"/><path d="M30.654 31.032v-12.3c0-2.546-.704-4.655-2.112-6.236-1.583-1.757-3.781-2.635-6.685-2.635-2.462 0-4.397.702-5.76 2.108-1.408-1.406-2.903-2.108-4.487-2.108-1.583 0-2.902.396-4.046 1.185l-.351-.746H.001c.35 3.425.571 5.49.571 6.148v14.584h7.431V19.216c0-1.756.661-2.635 2.069-2.635 1.23 0 1.846.703 1.846 2.02v12.43h7.477V19.217c0-1.756.616-2.635 1.935-2.635 1.231 0 1.89.79 1.89 2.283v12.168h7.434z" fill="#DADADA"/><path d="M1.382 33.725h-.84v5.397h.55v-4.666h.015l1.954 4.666h.29l1.954-4.666h.015v4.666h.55v-5.397h-.84l-1.825 4.39-1.823-4.39zm11.425 3.071l2.022-3.071h-.686l-1.61 2.546-1.611-2.546h-.687l2.023 3.071v2.326h.55v-2.326zm12.8-.251h1.121c.443 0 .779.087 1.008.259.229.173.343.437.343.793a.9.9 0 0 1-.11.457.942.942 0 0 1-.302.317 1.397 1.397 0 0 1-.45.186 2.407 2.407 0 0 1-.557.061h-1.053v-2.073zm0-2.318h1.053c.26 0 .465.038.618.11a.952.952 0 0 1 .347.264.77.77 0 0 1 .153.304c.023.103.034.181.034.237 0 .173-.033.32-.099.438a.903.903 0 0 1-.256.294c-.104.076-.22.13-.35.164-.13.033-.261.05-.394.05h-1.106v-1.86zm-.55 4.895h1.649c.432 0 .778-.062 1.037-.184.26-.122.458-.266.596-.43a1.29 1.29 0 0 0 .271-.5c.043-.168.065-.294.065-.38 0-.397-.108-.714-.324-.95-.217-.236-.516-.37-.898-.4v-.015c.306-.072.542-.213.706-.423.165-.21.248-.465.248-.759 0-.255-.048-.468-.145-.64a1.18 1.18 0 0 0-.389-.42 1.647 1.647 0 0 0-.557-.228 3.021 3.021 0 0 0-.649-.068h-1.61v5.397zm13.066-1.811a2.25 2.25 0 0 1-.439.743c-.19.213-.423.384-.698.511-.274.127-.585.19-.93.19-.347 0-.658-.063-.932-.19a2.13 2.13 0 0 1-1.137-1.254 2.595 2.595 0 0 1-.153-.888c0-.31.05-.607.153-.888.101-.282.248-.53.438-.744.191-.213.424-.383.7-.51a2.18 2.18 0 0 1 .93-.19c.346 0 .657.063.93.19.276.127.51.297.7.51.19.214.337.462.438.744.102.281.153.578.153.888 0 .309-.051.606-.153.888zm.534-2.024a2.715 2.715 0 0 0-.59-.896 2.708 2.708 0 0 0-.894-.59 2.893 2.893 0 0 0-1.118-.214 2.89 2.89 0 0 0-1.118.214 2.717 2.717 0 0 0-.894.59c-.251.252-.449.55-.59.896a2.932 2.932 0 0 0-.215 1.136c0 .411.071.79.215 1.135.141.346.339.644.59.896.253.252.55.449.894.591a2.91 2.91 0 0 0 1.118.213c.402 0 .774-.071 1.118-.213.344-.142.642-.34.893-.59.252-.253.449-.55.591-.897.143-.346.214-.724.214-1.135 0-.412-.071-.79-.214-1.136zm9.572 2.024a2.27 2.27 0 0 1-.44.743c-.19.213-.423.384-.698.511-.274.127-.585.19-.93.19-.347 0-.657-.063-.932-.19a2.13 2.13 0 0 1-1.136-1.254 2.582 2.582 0 0 1-.153-.888c0-.31.05-.607.153-.888.1-.282.247-.53.438-.744.19-.213.423-.383.698-.51.275-.127.585-.19.932-.19.345 0 .656.063.93.19.275.127.508.297.699.51.19.214.337.462.44.744.1.281.15.578.15.888 0 .309-.05.606-.15.888zm.534-2.024a2.734 2.734 0 0 0-.592-.896 2.715 2.715 0 0 0-.892-.59 2.897 2.897 0 0 0-1.118-.214 2.89 2.89 0 0 0-1.119.214 2.713 2.713 0 0 0-.893.59c-.252.252-.45.55-.591.896a2.937 2.937 0 0 0-.214 1.136c0 .411.07.79.214 1.135a2.7 2.7 0 0 0 .59.896c.253.252.55.449.894.591.344.142.715.213 1.119.213.4 0 .774-.071 1.118-.213.343-.142.64-.34.892-.59.252-.253.449-.55.592-.897a2.95 2.95 0 0 0 .213-1.135c0-.412-.07-.79-.213-1.136zm5.602-1.562h-.55v5.397h.55v-2.784h.092l2.656 2.784h.808l-2.877-2.951 2.726-2.446h-.787l-2.541 2.34H54.365v-2.34z" fill="#231F1F"/></g></svg>