<svg width="91" height="61" viewBox="0 0 91 61" xmlns="http://www.w3.org/2000/svg"><title>D25C86DD-14CA-495A-B843-1DD488093367</title><g fill="none" fill-rule="evenodd"><path fill="#00416B" d="M78.009 48.004H90.53V35.659H78.009z"/><path d="M80.292 30.839c0-4.736-1.22-8.594-3.657-11.639-2.778-3.315-6.707-5.006-11.72-5.006-1.76 0-3.726.473-5.824 1.353V1.133H48.317v36.201c0 .948.022 3.241-.07 9.88h10.165l.068-1.963c2.507 1.759 4.674 2.708 6.57 2.708 4.946 0 8.807-1.76 11.585-5.278 2.438-3.114 3.657-7.038 3.657-11.842m-11.042.404c0 2.166-.541 3.927-1.558 5.144-1.015 1.286-2.234 1.895-3.725 1.895-3.251 0-4.876-2.3-4.876-6.902 0-4.872 1.625-7.376 4.876-7.376 1.49 0 2.777.746 3.795 2.166.947 1.422 1.488 3.113 1.488 5.073" fill="#F3752A"/><path d="M80.292 30.839c0-4.736-1.22-8.594-3.657-11.639-2.778-3.315-6.707-5.006-11.72-5.006-1.76 0-3.726.473-5.824 1.353V1.133H48.317v36.201c0 .948.022 3.241-.07 9.88h10.165l.068-1.963c2.507 1.759 4.674 2.708 6.57 2.708 4.946 0 8.807-1.76 11.585-5.278 2.438-3.114 3.657-7.038 3.657-11.842zm-11.042.404c0 2.166-.541 3.927-1.558 5.144-1.015 1.286-2.234 1.895-3.725 1.895-3.251 0-4.876-2.3-4.876-6.902 0-4.872 1.625-7.376 4.876-7.376 1.49 0 2.777.746 3.795 2.166.947 1.422 1.488 3.113 1.488 5.073z" stroke="#F3752A" stroke-width="1.303"/><path d="M48.095 47.972V28.735c0-3.983-1.105-7.28-3.313-9.754-2.484-2.748-5.933-4.121-10.489-4.121-3.863 0-6.899 1.097-9.039 3.296-2.208-2.199-4.553-3.296-7.038-3.296-2.484 0-4.553.618-6.349 1.852l-.55-1.165H.001c.55 5.357.897 8.586.897 9.615v22.81h11.66v-18.48c0-2.748 1.036-4.122 3.244-4.122 1.932 0 2.897 1.1 2.897 3.16v19.442H30.43v-18.48c0-2.748.966-4.122 3.036-4.122 1.932 0 2.966 1.236 2.966 3.572v19.03h11.663zM2.168 52.185H.85v8.441h.863v-7.298h.024l3.065 7.298h.455l3.066-7.298h.024v7.298h.862v-8.441H7.891L5.03 59.05l-2.861-6.866zm17.926 4.804l3.173-4.804H22.19l-2.527 3.982-2.527-3.982h-1.078l3.174 4.804v3.637h.862V56.99zm20.082-.393h1.76c.694 0 1.221.136 1.58.405.36.27.54.684.54 1.24 0 .279-.059.516-.174.716a1.475 1.475 0 0 1-.473.495c-.199.13-.436.227-.706.29a3.787 3.787 0 0 1-.874.097h-1.653v-3.243zm0-3.625h1.653c.407 0 .73.058.97.173.238.115.42.252.544.412.124.158.204.317.24.476.036.16.054.282.054.37 0 .27-.053.499-.156.685-.104.186-.238.34-.401.46-.164.12-.347.204-.551.256a2.46 2.46 0 0 1-.617.077h-1.736v-2.909zm-.863 7.655H41.9c.678 0 1.221-.096 1.629-.286.407-.191.718-.417.934-.675.215-.257.357-.518.425-.78a2.66 2.66 0 0 0 .102-.596c0-.62-.17-1.115-.509-1.485-.34-.37-.809-.578-1.408-.626v-.023c.48-.112.85-.333 1.108-.662.259-.329.39-.727.39-1.186 0-.399-.077-.732-.228-1.002a1.848 1.848 0 0 0-.61-.656 2.588 2.588 0 0 0-.875-.358 4.754 4.754 0 0 0-1.018-.106h-2.527v8.441zm20.501-2.832c-.16.44-.389.828-.688 1.163-.299.333-.664.6-1.097.799-.43.198-.918.297-1.46.297-.542 0-1.03-.1-1.46-.297a3.34 3.34 0 0 1-1.097-.8 3.533 3.533 0 0 1-.688-1.162 4.048 4.048 0 0 1-.24-1.388c0-.485.08-.95.24-1.39.16-.441.39-.828.688-1.163.3-.333.665-.6 1.097-.798.43-.2.918-.298 1.46-.298.542 0 1.03.099 1.46.298a3.28 3.28 0 0 1 1.097.798c.3.335.529.722.688 1.163.16.44.24.905.24 1.39 0 .482-.08.947-.24 1.388zm.838-3.165a4.246 4.246 0 0 0-.927-1.402 4.25 4.25 0 0 0-1.402-.923 4.552 4.552 0 0 0-1.754-.335c-.632 0-1.215.113-1.754.335-.54.221-1.006.53-1.402.923a4.22 4.22 0 0 0-.927 1.402 4.574 4.574 0 0 0-.336 1.777c0 .643.111 1.234.336 1.775.222.541.532 1.007.927 1.401.396.394.862.702 1.402.925.539.22 1.122.333 1.754.333.63 0 1.215-.112 1.754-.333a4.277 4.277 0 0 0 1.402-.925c.395-.394.703-.86.927-1.401a4.606 4.606 0 0 0 .336-1.775c0-.645-.113-1.236-.336-1.777zm15.018 3.165c-.16.44-.39.828-.69 1.163-.298.333-.664.6-1.096.799-.43.198-.918.297-1.459.297-.544 0-1.03-.1-1.462-.297a3.34 3.34 0 0 1-1.096-.8 3.506 3.506 0 0 1-.687-1.162 4.028 4.028 0 0 1-.24-1.388c0-.485.079-.95.24-1.39.158-.441.388-.828.687-1.163.3-.333.665-.6 1.096-.798.431-.2.918-.298 1.462-.298.54 0 1.029.099 1.459.298.432.198.798.465 1.096.798.3.335.53.722.69 1.163.158.44.238.905.238 1.39a4.1 4.1 0 0 1-.238 1.388zm.837-3.165a4.275 4.275 0 0 0-.928-1.402 4.26 4.26 0 0 0-1.4-.923 4.558 4.558 0 0 0-1.754-.335c-.633 0-1.216.113-1.755.335-.54.221-1.007.53-1.402.923-.395.394-.705.86-.928 1.402a4.581 4.581 0 0 0-.336 1.777c0 .643.112 1.234.336 1.775.223.541.533 1.007.928 1.401.395.394.862.702 1.402.925a4.576 4.576 0 0 0 1.755.333c.628 0 1.215-.112 1.754-.333a4.288 4.288 0 0 0 1.4-.925c.395-.394.703-.86.928-1.401a4.602 4.602 0 0 0 .335-1.775c0-.645-.11-1.236-.335-1.777zm8.79-2.444h-.862v8.441h.862v-4.353H85.44l4.168 4.353h1.268l-4.513-4.615 4.275-3.826h-1.233l-3.988 3.66h-.12v-3.66z" fill="#FFF"/></g></svg>