<svg width="22" height="22" viewBox="0 0 22 22" xmlns="http://www.w3.org/2000/svg"><title>14946864-251C-4899-9501-6C575315821E</title><g fill-rule="nonzero" fill="none"><path d="M22 18.944A3.055 3.055 0 0 1 18.944 22H3.056A3.055 3.055 0 0 1 0 18.944V3.056A3.055 3.055 0 0 1 3.056 0h15.888A3.055 3.055 0 0 1 22 3.056v15.888z" fill="#3F51B5"/><path d="M17.336 11.611h-2.058v7.945h-3.056V11.61H10.39V9.167h1.833V7.694c.001-2.144.892-3.416 3.418-3.416h2.082v2.444h-1.397c-.984 0-1.047.367-1.047 1.053v1.392h2.444l-.386 2.444z" fill="#FFF"/></g></svg>