<?xml version="1.0" encoding="utf-8"?>
<!-- Generator: Adobe Illustrator 21.0.0, SVG Export Plug-In . SVG Version: 6.00 Build 0)  -->
<svg version="1.1" id="Layer_1" xmlns="http://www.w3.org/2000/svg" xmlns:xlink="http://www.w3.org/1999/xlink" x="0px" y="0px"
	 viewBox="0 0 500 500" style="enable-background:new 0 0 500 500;" xml:space="preserve">
<style type="text/css">
	.st0{fill:none;}
</style>
<g>
	<g>
		<g>
			<path class="st0" d="M0,500V0h500v500H0z"/>
			<path d="M250,0C111.9,0,0,111.9,0,250s111.9,250,250,250s250-111.9,250-250S388.1,0,250,0z M338,146.8h-28.1
				c-20.1,0-28.1,4.7-28.1,18.8v28.1H338l-9.4,56.2h-46.9v187.5h-65.6V249.9H188v-56.2h28.1v-28.1c0-43.8,14.8-75,65.6-75
				c27.2,0,56.2,9.4,56.2,9.4V146.8z"/>
		</g>
	</g>
</g>
</svg>
