<svg width="22" height="22" viewBox="0 0 22 22" xmlns="http://www.w3.org/2000/svg"><title>2F080C47-A842-4C8B-A097-3E71ECE3C518</title><g fill="none" fill-rule="evenodd"><path d="M15.889 22H6.11A6.118 6.118 0 0 1 0 15.889V6.11A6.118 6.118 0 0 1 6.111 0h9.778A6.118 6.118 0 0 1 22 6.111v9.778A6.118 6.118 0 0 1 15.889 22z" fill="#304FFE" fill-rule="nonzero"/><path d="M0 6.111v9.778A6.118 6.118 0 0 0 6.111 22h9.778A6.118 6.118 0 0 0 22 15.889V6.11c0-.588-.088-1.155-.244-1.693A20.076 20.076 0 0 0 9.166 0a20.12 20.12 0 0 0-6.522 1.085A6.105 6.105 0 0 0 0 6.11z" fill="#304FFE" fill-rule="nonzero" opacity=".29"/><path d="M9.167 1.222c-3.029 0-5.889.715-8.428 1.978A6.073 6.073 0 0 0 0 6.111v9.778A6.118 6.118 0 0 0 6.111 22h9.778A6.118 6.118 0 0 0 22 15.889V6.235A18.874 18.874 0 0 0 9.167 1.222z" fill="#6200EA" fill-rule="nonzero"/><path d="M22 7.952A17.667 17.667 0 0 0 9.167 2.444c-3.307 0-6.4.909-9.05 2.486A6.116 6.116 0 0 0 0 6.11v9.778A6.118 6.118 0 0 0 6.111 22h9.778A6.118 6.118 0 0 0 22 15.889V7.952z" fill="#673AB7" fill-rule="nonzero"/><path d="M22 9.8c-3.025-3.74-7.649-6.133-12.833-6.133A16.42 16.42 0 0 0 0 6.447v9.442A6.118 6.118 0 0 0 6.111 22h9.778A6.118 6.118 0 0 0 22 15.889v-6.09z" fill="#8E24AA" fill-rule="nonzero"/><path d="M22 15.889v-4.007c-2.721-4.207-7.45-6.993-12.833-6.993-3.44 0-6.614 1.137-9.167 3.055v7.945A6.118 6.118 0 0 0 6.111 22h9.778A6.118 6.118 0 0 0 22 15.889z" fill="#C2185B" fill-rule="nonzero"/><path d="M22 15.889v-1.454c-2.194-4.904-7.113-8.324-12.833-8.324A14 14 0 0 0 0 9.516v6.373A6.118 6.118 0 0 0 6.111 22h9.778A6.118 6.118 0 0 0 22 15.889z" fill="#D81B60" fill-rule="nonzero"/><path d="M21.746 17.623c-1.18-5.869-6.363-10.29-12.58-10.29-3.593 0-6.836 1.481-9.166 3.86v4.696A6.118 6.118 0 0 0 6.111 22h9.778c2.767 0 5.107-1.85 5.857-4.377z" fill="#F50057" fill-rule="nonzero"/><path d="M20.748 19.58C20.44 13.44 15.38 8.555 9.167 8.555c-3.732 0-7.043 1.767-9.167 4.502v2.83A6.118 6.118 0 0 0 6.111 22h9.778a6.098 6.098 0 0 0 4.859-2.42z" fill="#FF1744" fill-rule="nonzero"/><path d="M9.167 9.778c-3.97 0-7.419 2.23-9.167 5.502v.609A6.118 6.118 0 0 0 6.111 22h9.778a6.07 6.07 0 0 0 3.635-1.21c.013-.208.032-.413.032-.623 0-5.738-4.652-10.39-10.39-10.39z" fill="#FF5722" fill-rule="nonzero"/><path d="M9.167 11c-4.249 0-7.812 2.894-8.851 6.815C1.126 20.242 3.415 22 6.11 22h9.778a6.07 6.07 0 0 0 2.331-.464c.068-.448.113-.903.113-1.37A9.167 9.167 0 0 0 9.167 11z" fill="#FF6F00" fill-rule="nonzero"/><path d="M9.167 12.222c-4.19 0-7.614 3.245-7.915 7.357A6.098 6.098 0 0 0 6.112 22h9.777c.35 0 .691-.036 1.025-.093a7.93 7.93 0 0 0 .197-1.74 7.944 7.944 0 0 0-7.944-7.945z" fill="#FF9800" fill-rule="nonzero"/><path d="M15.63 22c.165-.584.259-1.197.259-1.833a6.722 6.722 0 1 0-13.413.622A6.07 6.07 0 0 0 6.11 22h9.518z" fill="#FFC107" fill-rule="nonzero"/><path d="M9.167 14.667a5.5 5.5 0 0 0-5.5 5.5c0 .482.068.949.185 1.395.7.28 1.461.438 2.26.438h8.235c.204-.574.32-1.19.32-1.833a5.5 5.5 0 0 0-5.5-5.5z" fill="#FFD54F" fill-rule="nonzero"/><path d="M9.167 15.94a4.278 4.278 0 0 0-3.919 5.992c.283.04.57.068.863.068h6.941c.25-.543.392-1.145.392-1.781a4.278 4.278 0 0 0-4.277-4.278z" fill="#FFE082" fill-rule="nonzero"/><path d="M9.167 17.163A3.056 3.056 0 0 0 6.11 20.22c0 .666.22 1.279.583 1.781h4.946a3.033 3.033 0 0 0 .582-1.781 3.055 3.055 0 0 0-3.055-3.056z" fill="#FFECB3" fill-rule="nonzero"/><path d="M7.333 18.944h7.334a4.278 4.278 0 0 0 4.277-4.277V7.333a4.278 4.278 0 0 0-4.277-4.277H7.333a4.278 4.278 0 0 0-4.277 4.277v7.334a4.278 4.278 0 0 0 4.277 4.277z" stroke="#FFF" stroke-width="1.176"/><circle stroke="#FFF" stroke-width="1.176" cx="11" cy="11" r="3.667"/><ellipse fill="#FFF" fill-rule="nonzero" cx="15.278" cy="6.111" rx="1" ry="1"/></g></svg>