<?xml version="1.0" encoding="utf-8"?>
<!-- Generator: Adobe Illustrator 21.0.0, SVG Export Plug-In . SVG Version: 6.00 Build 0)  -->
<svg version="1.1" id="Layer_1" xmlns="http://www.w3.org/2000/svg" xmlns:xlink="http://www.w3.org/1999/xlink" x="0px" y="0px"
	 viewBox="0 0 500 500" style="enable-background:new 0 0 500 500;" xml:space="preserve">
<style type="text/css">
	.st0{fill:none;}
</style>
<g>
	<g>
		<path class="st0" d="M0,500V0h500v500H0z"/>
	</g>
</g>
<g>
	<path d="M250,181.7c-37.8,0-68.3,30.5-68.3,68.3s30.5,68.3,68.3,68.3s68.3-30.5,68.3-68.3S287.8,181.7,250,181.7z"/>
	<path d="M318.3,106.7H181.7c-41.5,0-75.1,33.5-75.1,75.1v136.5c0,41.5,33.5,75.1,75.1,75.1h136.5c41.5,0,75.1-33.5,75.1-75.1V181.7
		C393.3,140.2,359.8,106.7,318.3,106.7z M250,331.9c-45.2,0-81.9-36.8-81.9-81.9s36.8-81.9,81.9-81.9v0c45.2,0,81.9,36.8,81.9,81.9
		C331.9,295.2,295.2,331.9,250,331.9z M338.7,174.9c-7.5,0-13.7-6.1-13.7-13.7s6.1-13.7,13.7-13.7s13.7,6.1,13.7,13.7
		S346.3,174.9,338.7,174.9z"/>
	<path d="M250,0C111.9,0,0,111.9,0,250s111.9,250,250,250s250-111.9,250-250S388.1,0,250,0z M407,318.3c0,48.9-39.8,88.7-88.7,88.7
		H181.7c-48.9,0-88.7-39.8-88.7-88.7V181.7c0-48.9,39.8-88.7,88.7-88.7h136.5c48.9,0,88.7,39.8,88.7,88.7V318.3z"/>
</g>
</svg>
