<svg width="26" height="22" viewBox="0 0 26 22" xmlns="http://www.w3.org/2000/svg"><title>A59C87B8-E99B-4898-845E-0EC7EC9CF4D2</title><g fill-rule="nonzero" fill="none"><path d="M9.455 0C4.255 0 0 3.667 0 8.25c0 2.628 1.36 4.889 3.545 6.417l-1.181 3.666 3.722-2.383c1.005.367 2.187.55 3.369.55 5.2 0 9.454-3.667 9.454-8.25S14.655 0 9.455 0z" fill="#8BC34A"/><path d="M10.636 14.056c0-3.728 3.428-6.723 7.682-6.723h.532a7.349 7.349 0 0 0-.295-1.222h-.237c-4.904 0-8.863 3.545-8.863 7.945 0 .855.177 1.65.413 2.444.414 0 .827-.061 1.241-.122a6.261 6.261 0 0 1-.473-2.322z" fill="#7CB342"/><path d="M26 14.056c0-3.728-3.427-6.723-7.682-6.723-4.254 0-7.682 2.995-7.682 6.723 0 3.727 3.428 6.722 7.682 6.722a9.101 9.101 0 0 0 2.955-.49L24.227 22l-.827-2.933c1.595-1.223 2.6-2.995 2.6-5.011z" fill="#CFD8DC"/><path d="M7.09 5.5c0 .672-.53 1.222-1.18 1.222-.65 0-1.183-.55-1.183-1.222 0-.672.532-1.222 1.182-1.222.65 0 1.182.55 1.182 1.222zM13 4.278c-.65 0-1.182.55-1.182 1.222 0 .672.532 1.222 1.182 1.222.65 0 1.182-.55 1.182-1.222 0-.672-.532-1.222-1.182-1.222z" fill="#33691E"/><path d="M16.545 12.528c0 .489-.413.916-.886.916-.473 0-.886-.427-.886-.916 0-.49.413-.917.886-.917.473 0 .886.428.886.917zm4.432-.917c-.472 0-.886.428-.886.917 0 .489.414.916.886.916.473 0 .887-.427.887-.916 0-.49-.414-.917-.887-.917z" fill="#546E7A"/></g></svg>