<?xml version="1.0" encoding="utf-8"?>
<!-- Generator: Adobe Illustrator 21.0.0, SVG Export Plug-In . SVG Version: 6.00 Build 0)  -->
<svg version="1.1" id="Layer_1" xmlns="http://www.w3.org/2000/svg" xmlns:xlink="http://www.w3.org/1999/xlink" x="0px" y="0px"
	 viewBox="0 0 500 500" style="enable-background:new 0 0 500 500;" xml:space="preserve">
<style type="text/css">
	.st0{fill:none;}
</style>
<g transform="">
	<g>
		<g>
			<g>
				<g>
					<path class="st0" d="M0,500V0h500v500H0z"/>
				</g>
			</g>
		</g>
	</g>
</g>
<g>
	<path d="M316.5,197.8c-10.5-43.3-56.5-76.5-112.4-76.5v0c-63.8,0-114.7,43.1-114.7,95.6c0,30.1,15.9,56,42.5,73.9l4.8,3.2
		l-10.5,31.4l33.3-20.6l3.4,1.2c12,4.2,26.5,6.5,41,6.5c3.7,0,7.4-0.1,11-0.4c-2.1-7.2-3.3-14.7-3.3-22.5
		C211.8,238.7,259.1,198.9,316.5,197.8z M158.3,197.7c-8.4,0-15.3-6.9-15.3-15.3c0-8.4,6.9-15.3,15.3-15.3c8.4,0,15.3,6.9,15.3,15.3
		C173.5,190.9,166.7,197.7,158.3,197.7z M250,167.2c8.4,0,15.3,6.9,15.3,15.3c0,8.4-6.9,15.3-15.3,15.3c-8.4,0-15.3-6.9-15.3-15.3
		C234.7,174,241.6,167.2,250,167.2z"/>
	<path d="M318.8,213L318.8,213c-51.6,0-91.7,34.7-91.7,76.5s40.2,76.5,91.7,76.5c12.9,0,25.1-2.2,35.8-5.7l3.2-1.1l24.9,13.9
		l-7-23.9l4.3-3.2c19-14.1,30.6-33.9,30.6-56.5C410.5,247.7,370.4,213,318.8,213z M284.4,281.8c-6.1,0-11.5-5.4-11.5-11.5
		c0-6.1,5.4-11.5,11.5-11.5c6.1,0,11.5,5.4,11.5,11.5C295.9,276.5,290.5,281.8,284.4,281.8z M353.2,281.8c-6.1,0-11.5-5.4-11.5-11.5
		c0-6.1,5.4-11.5,11.5-11.5c6.1,0,11.5,5.4,11.5,11.5C364.7,276.5,359.3,281.8,353.2,281.8z"/>
	<path d="M250,0C111.9,0,0,111.9,0,250s111.9,250,250,250s250-111.9,250-250S388.1,0,250,0z M407.8,404.7l-52.4-29.3
		c-11.3,3.4-23.5,5.9-36.7,5.9c-43.4,0-81.2-22.1-97.9-54.5c-5.5,0.6-11.1,1-16.8,1c-14.7,0-29.1-2.3-42.2-6.4l-63.4,39.3l20.3-61
		c-27.1-20.2-44.6-49.2-44.6-82.7c0-62.2,59.2-110.9,130-110.9v0c63.6,0,117.7,39.2,128.1,92.5c52.3,5.6,93.6,43.5,93.6,90.9
		c0,26-12.9,48.7-32.6,65.1L407.8,404.7z"/>
</g>
</svg>
