<?xml version="1.0" encoding="utf-8"?>
<!-- Generator: Adobe Illustrator 21.0.0, SVG Export Plug-In . SVG Version: 6.00 Build 0)  -->
<svg version="1.1" id="Layer_1" xmlns="http://www.w3.org/2000/svg" xmlns:xlink="http://www.w3.org/1999/xlink" x="0px" y="0px"
	 viewBox="0 0 500 500" style="enable-background:new 0 0 500 500;" xml:space="preserve">
<style type="text/css">
	.st0{fill:none;}
	.st1{fill:#FFFFFF;}
</style>
<g>
	<g>
		<g>
			<path class="st0" d="M0,500V0h500v500H0z"/>
			<path d="M250,500C111.9,500,0,388.1,0,250l0,0C0,111.9,111.9,0,250,0l0,0c138.1,0,250,111.9,250,250l0,0
				C500,388.1,388.1,500,250,500z"/>
		</g>
	</g>
</g>
<path class="st1" d="M325.7,106c-5.9,0-11.6,0.6-17,1.6c-4.1,0.7-6.9,4.6-6.1,8.8c0.7,4.1,4.6,6.9,8.8,6.1c4.8-0.8,9.6-1.3,14.4-1.3
	c46.1,0,83.2,37.2,83.2,83.2c0,10-1.8,19.5-5.1,28.4c-1,2.6-0.6,5.5,1.2,7.6c1.8,2.1,4.5,3.1,7.2,2.6c2.7-0.5,4.9-2.4,5.8-5.1
	c3.8-10.4,6-21.7,6-33.6C424,150.1,379.9,106,325.7,106z"/>
<path class="st1" d="M325.7,151.4c-3.2,0-6.3,0.3-9.2,0.8c-2.7,0.5-4.9,2.3-5.8,4.9c-0.9,2.5-0.4,5.4,1.3,7.5
	c1.7,2.1,4.4,3.1,7.1,2.6c2.2-0.4,4.4-0.6,6.6-0.6c21,0,37.8,16.8,37.8,37.8c0,4.5-0.8,8.8-2.3,12.9c-0.9,2.5-0.4,5.4,1.3,7.5
	c1.7,2.1,4.5,3.1,7.1,2.6c2.7-0.5,4.9-2.3,5.8-4.9c2-5.6,3.2-11.7,3.2-18.1C378.6,175.2,354.8,151.4,325.7,151.4L325.7,151.4z"/>
<path class="st1" d="M334.9,248.8c-4.8-1.6-7.9-2.4-5.5-8.7c1.6-3.8,3.9-11,3.9-20.6c0-10.9-7.6-20.3-22.7-22
	c-7.5-0.8-37.8-0.7-58,7.7c0,0-11.1,4.8-7.9-3.9c5.5-17.4,4.8-31.7-3.9-39.6c-4.8-4.8-11.5-7.1-19.6-7.2l0,0
	c-24.3-0.4-61,18.7-93.6,50.8C95,237.7,76,271.8,76,301.1c0,57,72.9,91.1,144.9,91.1c93.4,0,156-53.9,156-96.6
	C376.9,269.4,354.7,255.1,334.9,248.8z M214.5,376.3c-59,0-106.9-30.1-106.9-67.3c0-37.2,47.9-67.3,106.9-67.3
	c59,0,106.9,30.1,106.9,67.3C321.4,346.2,273.6,376.3,214.5,376.3z"/>
<path class="st1" d="M222.4,259.4c-5.2-1.3-10.5-1.9-15.8-1.9l0,0c-22.8,0.2-45,12.7-54.7,32c-11.9,24.5-0.8,51.4,27.7,60.1
	c28.5,9.5,62.5-4.8,74.4-30.9C265.9,293.4,250.9,266.5,222.4,259.4z M199.4,319.4c-5.4,8-17.9,12-27.2,8c-9.3-4-11.7-13.6-6.2-20.8
	c4.1-6,11.7-9.3,19.2-9.2v0c2.5,0,5,0.4,7.3,1.2C202.5,301.8,205.6,311.4,199.4,319.4z M218.4,305.3c-4.4,0-7.9-3.5-7.9-7.9
	s3.5-7.9,7.9-7.9s7.9,3.5,7.9,7.9S222.8,305.3,218.4,305.3z"/>
</svg>
