<svg width="26" height="22" viewBox="0 0 26 22" xmlns="http://www.w3.org/2000/svg"><title>E134060F-A3A8-45A7-A6B4-64C8AC429F82</title><g fill-rule="nonzero" fill="none"><path d="M18.91 14.056c-.355-3.545-4.492-5.99-9.455-5.44-2.896.306-5.555 1.59-7.032 3.423-.946 1.161-1.36 2.505-1.241 3.85.295 3.239 3.782 5.5 8.154 5.5.414 0 .828 0 1.3-.061 2.896-.306 5.555-1.59 7.032-3.422.946-1.162 1.36-2.506 1.241-3.85z" fill="#FFF"/><path d="M10.518 20.106c-4.195.427-7.859-1.528-8.154-4.34-.296-2.81 2.954-5.5 7.15-5.927 4.254-.428 7.859 1.528 8.154 4.339.296 2.872-2.895 5.5-7.15 5.928m8.805-9.167c-.355-.122-.591-.183-.414-.672.414-1.04.473-1.956 0-2.628-.827-1.222-3.132-1.161-5.732-.061 0 0-.827.366-.59-.306.413-1.344.354-2.444-.296-3.055-1.418-1.467-5.2.06-8.45 3.36C1.418 10.084 0 12.712 0 14.973 0 19.372 5.436 22 10.814 22c6.972 0 11.64-4.156 11.64-7.456 0-2.016-1.654-3.116-3.131-3.605" fill="#D32F2F"/><path d="M11.168 14.911c-.177.306-.532.489-.827.367-.296-.122-.355-.49-.236-.795.177-.305.531-.489.768-.305.354.06.413.366.295.733m-1.95 1.467c-.413.61-1.359.916-2.068.61-.71-.305-.886-1.038-.473-1.588.414-.611 1.3-.856 2.01-.611.768.244 1.004.978.531 1.589m1.714-4.645c-2.068-.55-4.373.49-5.26 2.323-.886 1.894-.058 3.972 2.069 4.644 2.127.733 4.668-.367 5.554-2.383.887-1.956-.236-4.034-2.363-4.584" fill="#263238"/><ellipse fill="#F9A825" cx="24.759" cy="9.472" rx="1" ry="1"/><path d="M25.586 9.778a.891.891 0 0 1-.827.61c-.473 0-.886-.427-.886-.916 0-.122 0-.244.059-.366.177-.55.295-1.162.295-1.773 0-3.055-2.363-5.5-5.318-5.5-.236 0-.532 0-.768.061h-.118c-.473 0-.887-.427-.887-.916 0-.49.414-.917.887-.917.295-.061.59-.061.886-.061C22.81 0 26 3.3 26 7.333c0 .856-.118 1.65-.414 2.445zm-3.131-2.445c0-2.016-1.596-3.666-3.546-3.666h-.414-.059a.916.916 0 0 0-.768.916c0 .49.414.917.887.917h.295c1.005 0 1.773.794 1.773 1.833 0 .184-.06.428-.118.611-.06.123-.06.184-.06.306 0 .489.414.917.887.917.354 0 .65-.245.827-.55v-.061c0-.062 0-.062.06-.123.176-.366.236-.733.236-1.1z" fill="#F9A825"/></g></svg>